<svg width="60" height="45" viewBox="0 0 60 45" fill="none" xmlns="http://www.w3.org/2000/svg">
<g clip-path="url(#clip0_2649_10)">
<path d="M1.87829 24.94C0.771126 23.5017 0.771126 21.4983 1.8783 20.06L13.7991 4.57445C14.5563 3.59078 15.7273 3.01443 16.9687 3.01443H43.0313C44.2727 3.01443 45.4437 3.59078 46.2009 4.57445L58.1217 20.06C59.2289 21.4983 59.2289 23.5017 58.1217 24.94L46.2009 40.4255C45.4437 41.4092 44.2727 41.9856 43.0313 41.9856H16.9687C15.7273 41.9856 14.5563 41.4092 13.7991 40.4255L1.87829 24.94Z" fill="#85C0F0"/>
<path d="M20.6858 15.9091V29H18.7043V17.8906H18.6276L15.4955 19.9361V18.044L18.7618 15.9091H20.6858ZM28.7845 29.2173C27.7746 29.2131 26.9117 28.9467 26.1958 28.4183C25.4798 27.8899 24.9323 27.1207 24.553 26.1108C24.1737 25.1009 23.9841 23.8842 23.9841 22.4609C23.9841 21.0419 24.1737 19.8295 24.553 18.8239C24.9365 17.8182 25.4862 17.0511 26.2021 16.5227C26.9223 15.9943 27.7831 15.7301 28.7845 15.7301C29.786 15.7301 30.6446 15.9964 31.3605 16.5291C32.0764 17.0575 32.624 17.8246 33.0033 18.8303C33.3868 19.8317 33.5786 21.0419 33.5786 22.4609C33.5786 23.8885 33.3889 25.1072 33.0097 26.1172C32.6304 27.1229 32.0828 27.892 31.3669 28.4247C30.651 28.9531 29.7902 29.2173 28.7845 29.2173ZM28.7845 27.5107C29.6709 27.5107 30.3634 27.0781 30.8619 26.2131C31.3648 25.348 31.6162 24.0973 31.6162 22.4609C31.6162 21.3743 31.5012 20.456 31.271 19.706C31.0452 18.9517 30.7192 18.3807 30.2931 17.9929C29.8712 17.6009 29.3683 17.4048 28.7845 17.4048C27.9024 17.4048 27.21 17.8395 26.7071 18.7088C26.2043 19.5781 25.9507 20.8288 25.9465 22.4609C25.9465 23.5518 26.0594 24.4744 26.2852 25.2287C26.5154 25.9787 26.8414 26.5476 27.2632 26.9354C27.6851 27.3189 28.1922 27.5107 28.7845 27.5107ZM36.0251 29V15.9091H38.0003V22.1605H38.1601L43.6508 15.9091H46.1373L40.8575 21.8026L46.1565 29H43.7787L39.5471 23.1513L38.0003 24.9283V29H36.0251Z" fill="#4D4D4D"/>
<mask id="mask0_2649_10" style="mask-type:alpha" maskUnits="userSpaceOnUse" x="1" y="3" width="58" height="39">
<path d="M1.87829 24.94C0.771126 23.5017 0.771126 21.4983 1.8783 20.06L13.7991 4.57445C14.5563 3.59078 15.7273 3.01443 16.9687 3.01443H43.0313C44.2727 3.01443 45.4437 3.59078 46.2009 4.57445L58.1217 20.06C59.2289 21.4983 59.2289 23.5017 58.1217 24.94L46.2009 40.4255C45.4437 41.4092 44.2727 41.9856 43.0313 41.9856H16.9687C15.7273 41.9856 14.5563 41.4092 13.7991 40.4255L1.87829 24.94Z" fill="#D9D9D9"/>
</mask>
<g mask="url(#mask0_2649_10)">
<path d="M0 22.5L15 42H45L60 22.5L58.07 20L44.2011 37.4857C43.4423 38.4423 42.2882 39 41.0672 39H18.9328C17.7118 39 16.5577 38.4423 15.7989 37.4857L1.93 20L0 22.5Z" fill="url(#paint0_radial_2649_10)" fill-opacity="0.2"/>
</g>
</g>
<defs>
<radialGradient id="paint0_radial_2649_10" cx="0" cy="0" r="1" gradientUnits="userSpaceOnUse" gradientTransform="translate(30 42) rotate(-90) scale(23.5 34.0304)">
<stop offset="0.225962" stop-color="#4E3A44"/>
<stop offset="1" stop-color="#333333" stop-opacity="0"/>
</radialGradient>
<clipPath id="clip0_2649_10">
<rect width="60" height="45" fill="white"/>
</clipPath>
</defs>
</svg>
