<svg width="60" height="45" viewBox="0 0 60 45" fill="none" xmlns="http://www.w3.org/2000/svg">
<g clip-path="url(#clip0_2656_60)">
<path d="M1.87829 24.94C0.771126 23.5017 0.771126 21.4983 1.8783 20.06L13.7991 4.57445C14.5563 3.59078 15.7273 3.01443 16.9687 3.01443H43.0313C44.2727 3.01443 45.4437 3.59078 46.2009 4.57445L58.1217 20.06C59.2289 21.4983 59.2289 23.5017 58.1217 24.94L46.2009 40.4255C45.4437 41.4092 44.2727 41.9856 43.0313 41.9856H16.9687C15.7273 41.9856 14.5563 41.4092 13.7991 40.4255L1.87829 24.94Z" fill="#85C0F0"/>
<path d="M20.2631 29V27.5682L24.6928 22.9787C25.1658 22.4801 25.5558 22.0433 25.8626 21.6683C26.1737 21.2891 26.4059 20.929 26.5593 20.5881C26.7127 20.2472 26.7894 19.8849 26.7894 19.5014C26.7894 19.0668 26.6871 18.6918 26.4826 18.3764C26.2781 18.0568 25.9989 17.8118 25.6452 17.6413C25.2915 17.4666 24.8931 17.3793 24.4499 17.3793C23.9812 17.3793 23.5721 17.4751 23.2227 17.6669C22.8732 17.8587 22.6048 18.1293 22.4173 18.4787C22.2298 18.8281 22.136 19.2372 22.136 19.706H20.2504C20.2504 18.9091 20.4336 18.2124 20.8001 17.6158C21.1665 17.0192 21.6694 16.5568 22.3086 16.2287C22.9478 15.8963 23.6744 15.7301 24.4883 15.7301C25.3107 15.7301 26.0352 15.8942 26.6616 16.2223C27.2923 16.5462 27.7844 16.9893 28.1381 17.5518C28.4918 18.1101 28.6687 18.7408 28.6687 19.4439C28.6687 19.9297 28.5771 20.4048 28.3938 20.8693C28.2148 21.3338 27.9016 21.8516 27.4542 22.4226C27.0067 22.9893 26.3846 23.6776 25.5877 24.4872L22.9862 27.2102V27.3061H28.8796V29H20.2631ZM31.4812 29V15.9091H33.4563V22.1605H33.6161L39.1069 15.9091H41.5934L36.3136 21.8026L41.6126 29H39.2347L35.0032 23.1513L33.4563 24.9283V29H31.4812Z" fill="#4D4D4D"/>
<mask id="mask0_2656_60" style="mask-type:alpha" maskUnits="userSpaceOnUse" x="1" y="3" width="58" height="39">
<path d="M1.87829 24.94C0.771126 23.5017 0.771126 21.4983 1.8783 20.06L13.7991 4.57445C14.5563 3.59078 15.7273 3.01443 16.9687 3.01443H43.0313C44.2727 3.01443 45.4437 3.59078 46.2009 4.57445L58.1217 20.06C59.2289 21.4983 59.2289 23.5017 58.1217 24.94L46.2009 40.4255C45.4437 41.4092 44.2727 41.9856 43.0313 41.9856H16.9687C15.7273 41.9856 14.5563 41.4092 13.7991 40.4255L1.87829 24.94Z" fill="#D9D9D9"/>
</mask>
<g mask="url(#mask0_2656_60)">
<path d="M0 22.5L15 42H45L60 22.5L58.07 20L44.2011 37.4857C43.4423 38.4423 42.2882 39 41.0672 39H18.9328C17.7118 39 16.5577 38.4423 15.7989 37.4857L1.93 20L0 22.5Z" fill="url(#paint0_radial_2656_60)" fill-opacity="0.2"/>
</g>
</g>
<defs>
<radialGradient id="paint0_radial_2656_60" cx="0" cy="0" r="1" gradientUnits="userSpaceOnUse" gradientTransform="translate(30 42) rotate(-90) scale(23.5 34.0304)">
<stop offset="0.225962" stop-color="#4E3A44"/>
<stop offset="1" stop-color="#333333" stop-opacity="0"/>
</radialGradient>
<clipPath id="clip0_2656_60">
<rect width="60" height="45" fill="white"/>
</clipPath>
</defs>
</svg>
