<svg width="60" height="45" viewBox="0 0 60 45" fill="none" xmlns="http://www.w3.org/2000/svg">
<g clip-path="url(#clip0_2656_42)">
<path d="M1.87829 24.94C0.771126 23.5017 0.771126 21.4983 1.8783 20.06L13.7991 4.57445C14.5563 3.59078 15.7273 3.01443 16.9687 3.01443H43.0313C44.2727 3.01443 45.4437 3.59078 46.2009 4.57445L58.1217 20.06C59.2289 21.4983 59.2289 23.5017 58.1217 24.94L46.2009 40.4255C45.4437 41.4092 44.2727 41.9856 43.0313 41.9856H16.9687C15.7273 41.9856 14.5563 41.4092 13.7991 40.4255L1.87829 24.94Z" fill="#85C0F0"/>
<path d="M24.0226 29.179C23.2215 29.179 22.5013 29.0256 21.8621 28.7188C21.2272 28.4077 20.7201 27.9815 20.3408 27.4403C19.9616 26.8991 19.7591 26.2812 19.7336 25.5866H21.6512C21.6981 26.1491 21.9474 26.6115 22.3991 26.9737C22.8508 27.3359 23.392 27.517 24.0226 27.517C24.5255 27.517 24.9708 27.402 25.3586 27.1719C25.7506 26.9375 26.0574 26.6158 26.279 26.2067C26.5049 25.7976 26.6178 25.331 26.6178 24.8068C26.6178 24.2741 26.5028 23.799 26.2726 23.3814C26.0425 22.9638 25.7251 22.6357 25.3202 22.397C24.9197 22.1584 24.4594 22.0369 23.9395 22.0327C23.5432 22.0327 23.1448 22.1009 22.7442 22.2372C22.3437 22.3736 22.0198 22.5526 21.7726 22.7741L19.9637 22.5057L20.6988 15.9091H27.8962V17.603H22.3415L21.926 21.2656H22.0028C22.2584 21.0185 22.5972 20.8118 23.0191 20.6456C23.4452 20.4794 23.9012 20.3963 24.387 20.3963C25.1839 20.3963 25.8934 20.5859 26.5155 20.9652C27.142 21.3445 27.6341 21.8622 27.9921 22.5185C28.3543 23.1705 28.5333 23.9205 28.529 24.7685C28.5333 25.6165 28.3415 26.3729 27.9537 27.0376C27.5702 27.7024 27.0376 28.2266 26.3557 28.6101C25.6782 28.9893 24.9005 29.179 24.0226 29.179ZM31.0427 29V15.9091H33.0178V22.1605H33.1776L38.6684 15.9091H41.1549L35.8751 21.8026L41.1741 29H38.7963L34.5647 23.1513L33.0178 24.9283V29H31.0427Z" fill="#4D4D4D"/>
<mask id="mask0_2656_42" style="mask-type:alpha" maskUnits="userSpaceOnUse" x="1" y="3" width="58" height="39">
<path d="M1.87829 24.94C0.771126 23.5017 0.771126 21.4983 1.8783 20.06L13.7991 4.57445C14.5563 3.59078 15.7273 3.01443 16.9687 3.01443H43.0313C44.2727 3.01443 45.4437 3.59078 46.2009 4.57445L58.1217 20.06C59.2289 21.4983 59.2289 23.5017 58.1217 24.94L46.2009 40.4255C45.4437 41.4092 44.2727 41.9856 43.0313 41.9856H16.9687C15.7273 41.9856 14.5563 41.4092 13.7991 40.4255L1.87829 24.94Z" fill="#D9D9D9"/>
</mask>
<g mask="url(#mask0_2656_42)">
<path d="M0 22.5L15 42H45L60 22.5L58.07 20L44.2011 37.4857C43.4423 38.4423 42.2882 39 41.0672 39H18.9328C17.7118 39 16.5577 38.4423 15.7989 37.4857L1.93 20L0 22.5Z" fill="url(#paint0_radial_2656_42)" fill-opacity="0.2"/>
</g>
</g>
<defs>
<radialGradient id="paint0_radial_2656_42" cx="0" cy="0" r="1" gradientUnits="userSpaceOnUse" gradientTransform="translate(30 42) rotate(-90) scale(23.5 34.0304)">
<stop offset="0.225962" stop-color="#4E3A44"/>
<stop offset="1" stop-color="#333333" stop-opacity="0"/>
</radialGradient>
<clipPath id="clip0_2656_42">
<rect width="60" height="45" fill="white"/>
</clipPath>
</defs>
</svg>
