<svg width="60" height="45" viewBox="0 0 60 45" fill="none" xmlns="http://www.w3.org/2000/svg">
<g clip-path="url(#clip0_2656_36)">
<path d="M1.87829 24.94C0.771126 23.5017 0.771126 21.4983 1.8783 20.06L13.7991 4.57445C14.5563 3.59078 15.7273 3.01443 16.9687 3.01443H43.0313C44.2727 3.01443 45.4437 3.59078 46.2009 4.57445L58.1217 20.06C59.2289 21.4983 59.2289 23.5017 58.1217 24.94L46.2009 40.4255C45.4437 41.4092 44.2727 41.9856 43.0313 41.9856H16.9687C15.7273 41.9856 14.5563 41.4092 13.7991 40.4255L1.87829 24.94Z" fill="#85C0F0"/>
<path d="M24.1313 29.179C23.5475 29.1705 22.9722 29.0639 22.4055 28.8594C21.843 28.6548 21.3316 28.3139 20.8714 27.8366C20.4111 27.3594 20.0425 26.718 19.7655 25.9126C19.4928 25.1072 19.3564 24.1016 19.3564 22.8956C19.3564 21.7536 19.4694 20.7393 19.6952 19.853C19.9253 18.9666 20.2556 18.2188 20.686 17.6094C21.1164 16.9957 21.6363 16.5291 22.2457 16.2095C22.855 15.8899 23.539 15.7301 24.2975 15.7301C25.0773 15.7301 25.7698 15.8835 26.3749 16.1903C26.98 16.4972 27.4701 16.9212 27.8451 17.4624C28.2243 18.0036 28.4651 18.6193 28.5674 19.3097H26.6178C26.4857 18.7642 26.2236 18.3189 25.8316 17.9737C25.4395 17.6286 24.9282 17.456 24.2975 17.456C23.3387 17.456 22.5908 17.8736 22.0539 18.7088C21.5212 19.544 21.2528 20.7053 21.2485 22.1925H21.3444C21.5702 21.8217 21.8472 21.5064 22.1753 21.2464C22.5077 20.9822 22.8785 20.7798 23.2876 20.6392C23.7009 20.4943 24.1356 20.4219 24.5915 20.4219C25.3501 20.4219 26.0361 20.6072 26.6498 20.978C27.2677 21.3445 27.7599 21.8516 28.1263 22.4993C28.4928 23.147 28.676 23.8885 28.676 24.7237C28.676 25.5589 28.4864 26.3153 28.1072 26.9929C27.7322 27.6705 27.2037 28.2074 26.5219 28.6037C25.8401 28.9957 25.0432 29.1875 24.1313 29.179ZM24.1249 27.517C24.6278 27.517 25.0773 27.3935 25.4736 27.1463C25.8699 26.8991 26.1832 26.5668 26.4133 26.1491C26.6434 25.7315 26.7584 25.2649 26.7584 24.7493C26.7584 24.2464 26.6455 23.7884 26.4197 23.375C26.1981 22.9616 25.8912 22.6335 25.4992 22.3906C25.1114 22.1477 24.6682 22.0263 24.1697 22.0263C23.7904 22.0263 23.4388 22.0987 23.115 22.2436C22.7954 22.3885 22.5141 22.5888 22.2712 22.8445C22.0283 23.1001 21.8366 23.3942 21.6959 23.7266C21.5596 24.0547 21.4914 24.402 21.4914 24.7685C21.4914 25.2585 21.6043 25.7124 21.8302 26.13C22.0603 26.5476 22.3735 26.8842 22.7698 27.1399C23.1704 27.3913 23.6221 27.517 24.1249 27.517ZM31.1833 29V15.9091H33.1585V22.1605H33.3183L38.809 15.9091H41.2955L36.0157 21.8026L41.3147 29H38.9369L34.7053 23.1513L33.1585 24.9283V29H31.1833Z" fill="#4D4D4D"/>
<mask id="mask0_2656_36" style="mask-type:alpha" maskUnits="userSpaceOnUse" x="1" y="3" width="58" height="39">
<path d="M1.87829 24.94C0.771126 23.5017 0.771126 21.4983 1.8783 20.06L13.7991 4.57445C14.5563 3.59078 15.7273 3.01443 16.9687 3.01443H43.0313C44.2727 3.01443 45.4437 3.59078 46.2009 4.57445L58.1217 20.06C59.2289 21.4983 59.2289 23.5017 58.1217 24.94L46.2009 40.4255C45.4437 41.4092 44.2727 41.9856 43.0313 41.9856H16.9687C15.7273 41.9856 14.5563 41.4092 13.7991 40.4255L1.87829 24.94Z" fill="#D9D9D9"/>
</mask>
<g mask="url(#mask0_2656_36)">
<path d="M0 22.5L15 42H45L60 22.5L58.07 20L44.2011 37.4857C43.4423 38.4423 42.2882 39 41.0672 39H18.9328C17.7118 39 16.5577 38.4423 15.7989 37.4857L1.93 20L0 22.5Z" fill="url(#paint0_radial_2656_36)" fill-opacity="0.2"/>
</g>
</g>
<defs>
<radialGradient id="paint0_radial_2656_36" cx="0" cy="0" r="1" gradientUnits="userSpaceOnUse" gradientTransform="translate(30 42) rotate(-90) scale(23.5 34.0304)">
<stop offset="0.225962" stop-color="#4E3A44"/>
<stop offset="1" stop-color="#333333" stop-opacity="0"/>
</radialGradient>
<clipPath id="clip0_2656_36">
<rect width="60" height="45" fill="white"/>
</clipPath>
</defs>
</svg>
