<svg width="60" height="45" viewBox="0 0 60 45" fill="none" xmlns="http://www.w3.org/2000/svg">
<g clip-path="url(#clip0_2649_4)">
<path d="M1.87829 24.94C0.771126 23.5017 0.771126 21.4983 1.8783 20.06L13.7991 4.57445C14.5563 3.59078 15.7273 3.01443 16.9687 3.01443H43.0313C44.2727 3.01443 45.4437 3.59078 46.2009 4.57445L58.1217 20.06C59.2289 21.4983 59.2289 23.5017 58.1217 24.94L46.2009 40.4255C45.4437 41.4092 44.2727 41.9856 43.0313 41.9856H16.9687C15.7273 41.9856 14.5563 41.4092 13.7991 40.4255L1.87829 24.94Z" fill="#11A8E8"/>
<path d="M20.9854 29H18.8888L23.5998 15.9091H25.8817L30.5927 29H28.4961L24.7951 18.2869H24.6928L20.9854 29ZM21.337 23.8736H28.1381V25.5355H21.337V23.8736ZM32.4831 29V15.9091H37.1493C38.1678 15.9091 39.0115 16.0945 39.6806 16.4652C40.3496 16.8359 40.8503 17.343 41.1827 17.9865C41.5151 18.6257 41.6813 19.3459 41.6813 20.147C41.6813 20.9524 41.513 21.6768 41.1763 22.3203C40.8439 22.9595 40.3411 23.4666 39.6678 23.8416C38.9988 24.2124 38.1571 24.3977 37.1429 24.3977H33.9341V22.723H36.964C37.6074 22.723 38.1294 22.6122 38.53 22.3906C38.9306 22.1648 39.2246 21.858 39.4121 21.4702C39.5996 21.0824 39.6934 20.6413 39.6934 20.147C39.6934 19.6527 39.5996 19.2138 39.4121 18.8303C39.2246 18.4467 38.9284 18.1463 38.5236 17.929C38.123 17.7116 37.5946 17.603 36.9384 17.603H34.4583V29H32.4831Z" fill="#A8E5FF"/>
<mask id="mask0_2649_4" style="mask-type:alpha" maskUnits="userSpaceOnUse" x="1" y="3" width="58" height="39">
<path d="M1.87829 24.94C0.771126 23.5017 0.771126 21.4983 1.8783 20.06L13.7991 4.57445C14.5563 3.59078 15.7273 3.01443 16.9687 3.01443H43.0313C44.2727 3.01443 45.4437 3.59078 46.2009 4.57445L58.1217 20.06C59.2289 21.4983 59.2289 23.5017 58.1217 24.94L46.2009 40.4255C45.4437 41.4092 44.2727 41.9856 43.0313 41.9856H16.9687C15.7273 41.9856 14.5563 41.4092 13.7991 40.4255L1.87829 24.94Z" fill="#D9D9D9"/>
</mask>
<g mask="url(#mask0_2649_4)">
<path d="M0 22.5L15 42H45L60 22.5L58.07 20L44.2011 37.4857C43.4423 38.4423 42.2882 39 41.0672 39H18.9328C17.7118 39 16.5577 38.4423 15.7989 37.4857L1.93 20L0 22.5Z" fill="url(#paint0_radial_2649_4)" fill-opacity="0.2"/>
</g>
</g>
<defs>
<radialGradient id="paint0_radial_2649_4" cx="0" cy="0" r="1" gradientUnits="userSpaceOnUse" gradientTransform="translate(30 42) rotate(-90) scale(23.5 34.0304)">
<stop offset="0.243163" stop-color="#333333"/>
<stop offset="1" stop-color="#333333" stop-opacity="0"/>
</radialGradient>
<clipPath id="clip0_2649_4">
<rect width="60" height="45" fill="white"/>
</clipPath>
</defs>
</svg>
