<svg width="60" height="45" viewBox="0 0 60 45" fill="none" xmlns="http://www.w3.org/2000/svg">
<g clip-path="url(#clip0_2277_37)">
<path d="M1.87829 24.94C0.771126 23.5017 0.771126 21.4983 1.8783 20.06L13.7991 4.57445C14.5563 3.59078 15.7273 3.01443 16.9687 3.01443H43.0313C44.2727 3.01443 45.4437 3.59078 46.2009 4.57445L58.1217 20.06C59.2289 21.4983 59.2289 23.5017 58.1217 24.94L46.2009 40.4255C45.4437 41.4092 44.2727 41.9856 43.0313 41.9856H16.9687C15.7273 41.9856 14.5563 41.4092 13.7991 40.4255L1.87829 24.94Z" fill="#F3D972"/>
<path d="M18.7634 29V15.9091H20.7385V21.598H27.2648V15.9091H29.2464V29H27.2648V23.2919H20.7385V29H18.7634ZM36.3607 29H32.1228V15.9091H36.4949C37.7776 15.9091 38.8792 16.1712 39.7996 16.6953C40.7201 17.2152 41.4253 17.9631 41.9154 18.9389C42.4097 19.9105 42.6569 21.076 42.6569 22.4354C42.6569 23.799 42.4076 24.9709 41.909 25.951C41.4147 26.9311 40.6988 27.6854 39.7613 28.2138C38.8238 28.7379 37.6903 29 36.3607 29ZM34.0979 27.2741H36.252C37.2492 27.2741 38.078 27.0866 38.7385 26.7116C39.3991 26.3324 39.8934 25.7848 40.2215 25.0689C40.5496 24.3487 40.7137 23.4709 40.7137 22.4354C40.7137 21.4084 40.5496 20.5369 40.2215 19.821C39.8976 19.1051 39.414 18.5618 38.7705 18.1911C38.127 17.8203 37.328 17.6349 36.3735 17.6349H34.0979V27.2741Z" fill="#544507"/>
<mask id="mask0_2277_37" style="mask-type:alpha" maskUnits="userSpaceOnUse" x="1" y="3" width="58" height="39">
<path d="M1.87829 24.94C0.771126 23.5017 0.771126 21.4983 1.8783 20.06L13.7991 4.57445C14.5563 3.59078 15.7273 3.01443 16.9687 3.01443H43.0313C44.2727 3.01443 45.4437 3.59078 46.2009 4.57445L58.1217 20.06C59.2289 21.4983 59.2289 23.5017 58.1217 24.94L46.2009 40.4255C45.4437 41.4092 44.2727 41.9856 43.0313 41.9856H16.9687C15.7273 41.9856 14.5563 41.4092 13.7991 40.4255L1.87829 24.94Z" fill="#D9D9D9"/>
</mask>
<g mask="url(#mask0_2277_37)">
<path d="M0 22.5L15 42H45L60 22.5L58.07 20L44.2011 37.4857C43.4423 38.4423 42.2882 39 41.0672 39H18.9328C17.7118 39 16.5577 38.4423 15.7989 37.4857L1.93 20L0 22.5Z" fill="url(#paint0_radial_2277_37)" fill-opacity="0.2"/>
</g>
</g>
<defs>
<radialGradient id="paint0_radial_2277_37" cx="0" cy="0" r="1" gradientUnits="userSpaceOnUse" gradientTransform="translate(30 42) rotate(-90) scale(23.5 34.0304)">
<stop offset="0.243163" stop-color="#333333"/>
<stop offset="1" stop-color="#333333" stop-opacity="0"/>
</radialGradient>
<clipPath id="clip0_2277_37">
<rect width="60" height="45" fill="white"/>
</clipPath>
</defs>
</svg>
