<svg width="60" height="45" viewBox="0 0 60 45" fill="none" xmlns="http://www.w3.org/2000/svg">
<g clip-path="url(#clip0_2638_2)">
<path d="M1.87829 24.94C0.771126 23.5017 0.771126 21.4983 1.8783 20.06L13.7991 4.57445C14.5563 3.59078 15.7273 3.01443 16.9687 3.01443H43.0313C44.2727 3.01443 45.4437 3.59078 46.2009 4.57445L58.1217 20.06C59.2289 21.4983 59.2289 23.5017 58.1217 24.94L46.2009 40.4255C45.4437 41.4092 44.2727 41.9856 43.0313 41.9856H16.9687C15.7273 41.9856 14.5563 41.4092 13.7991 40.4255L1.87829 24.94Z" fill="#11E8B6"/>
<path d="M19.6423 29V15.9091H24.3085C25.3227 15.9091 26.1643 16.0838 26.8334 16.4332C27.5067 16.7827 28.0095 17.2663 28.3419 17.8842C28.6743 18.4979 28.8405 19.2074 28.8405 20.0128C28.8405 20.8139 28.6721 21.5192 28.3355 22.1286C28.0031 22.7337 27.5003 23.2045 26.827 23.5412C26.1579 23.8778 25.3163 24.0462 24.3021 24.0462H20.7673V22.3459H24.1231C24.7623 22.3459 25.2822 22.2543 25.6828 22.071C26.0876 21.8878 26.3838 21.6214 26.5713 21.272C26.7588 20.9226 26.8525 20.5028 26.8525 20.0128C26.8525 19.5185 26.7567 19.0902 26.5649 18.728C26.3774 18.3658 26.0812 18.0888 25.6764 17.897C25.2758 17.701 24.7496 17.603 24.0976 17.603H21.6175V29H19.6423ZM26.1047 23.0938L29.339 29H27.089L23.9186 23.0938H26.1047ZM35.4818 29H31.2439V15.9091H35.616C36.8987 15.9091 38.0003 16.1712 38.9207 16.6953C39.8412 17.2152 40.5464 17.9631 41.0365 18.9389C41.5308 19.9105 41.778 21.076 41.778 22.4354C41.778 23.799 41.5287 24.9709 41.0301 25.951C40.5358 26.9311 39.8199 27.6854 38.8824 28.2138C37.9449 28.7379 36.8113 29 35.4818 29ZM33.219 27.2741H35.3731C36.3703 27.2741 37.1991 27.0866 37.8596 26.7116C38.5202 26.3324 39.0145 25.7848 39.3426 25.0689C39.6707 24.3487 39.8348 23.4709 39.8348 22.4354C39.8348 21.4084 39.6707 20.5369 39.3426 19.821C39.0187 19.1051 38.5351 18.5618 37.8916 18.1911C37.2481 17.8203 36.4491 17.6349 35.4946 17.6349H33.219V27.2741Z" fill="#271920" fill-opacity="0.7"/>
<mask id="mask0_2638_2" style="mask-type:alpha" maskUnits="userSpaceOnUse" x="1" y="3" width="58" height="39">
<path d="M1.87829 24.94C0.771126 23.5017 0.771126 21.4983 1.8783 20.06L13.7991 4.57445C14.5563 3.59078 15.7273 3.01443 16.9687 3.01443H43.0313C44.2727 3.01443 45.4437 3.59078 46.2009 4.57445L58.1217 20.06C59.2289 21.4983 59.2289 23.5017 58.1217 24.94L46.2009 40.4255C45.4437 41.4092 44.2727 41.9856 43.0313 41.9856H16.9687C15.7273 41.9856 14.5563 41.4092 13.7991 40.4255L1.87829 24.94Z" fill="#D9D9D9"/>
</mask>
<g mask="url(#mask0_2638_2)">
<path d="M0 22.5L15 42H45L60 22.5L58.07 20L44.2011 37.4857C43.4423 38.4423 42.2882 39 41.0672 39H18.9328C17.7118 39 16.5577 38.4423 15.7989 37.4857L1.93 20L0 22.5Z" fill="url(#paint0_radial_2638_2)" fill-opacity="0.2"/>
</g>
</g>
<defs>
<radialGradient id="paint0_radial_2638_2" cx="0" cy="0" r="1" gradientUnits="userSpaceOnUse" gradientTransform="translate(30 42) rotate(-90) scale(23.5 34.0304)">
<stop offset="0.243163" stop-color="#333333"/>
<stop offset="1" stop-color="#333333" stop-opacity="0"/>
</radialGradient>
<clipPath id="clip0_2638_2">
<rect width="60" height="45" fill="white"/>
</clipPath>
</defs>
</svg>
