<svg width="60" height="45" viewBox="0 0 60 45" fill="none" xmlns="http://www.w3.org/2000/svg">
<g clip-path="url(#clip0_2618_54)">
<path d="M1.87829 24.94C0.771126 23.5017 0.771126 21.4983 1.8783 20.06L13.7991 4.57445C14.5563 3.59078 15.7273 3.01443 16.9687 3.01443H43.0313C44.2727 3.01443 45.4437 3.59078 46.2009 4.57445L58.1217 20.06C59.2289 21.4983 59.2289 23.5017 58.1217 24.94L46.2009 40.4255C45.4437 41.4092 44.2727 41.9856 43.0313 41.9856H16.9687C15.7273 41.9856 14.5563 41.4092 13.7991 40.4255L1.87829 24.94Z" fill="#FF9137"/>
<path d="M26.791 19.348C26.7228 18.7429 26.4416 18.2741 25.9473 17.9418C25.4529 17.6051 24.8308 17.4368 24.0808 17.4368C23.5439 17.4368 23.0794 17.522 22.6873 17.6925C22.2953 17.8587 21.9906 18.0888 21.7733 18.3828C21.5602 18.6726 21.4537 19.0028 21.4537 19.3736C21.4537 19.6847 21.5261 19.9531 21.671 20.179C21.8201 20.4048 22.014 20.5945 22.2527 20.7479C22.4956 20.897 22.7555 21.0227 23.0325 21.125C23.3095 21.223 23.5758 21.304 23.8315 21.3679L25.1099 21.7003C25.5275 21.8026 25.9558 21.9411 26.3947 22.1158C26.8336 22.2905 27.2406 22.5206 27.6156 22.8061C27.9906 23.0916 28.2931 23.4453 28.5233 23.8672C28.7576 24.2891 28.8748 24.794 28.8748 25.3821C28.8748 26.1236 28.6831 26.782 28.2995 27.3572C27.9203 27.9325 27.3684 28.3864 26.644 28.7188C25.9238 29.0511 25.0524 29.2173 24.0297 29.2173C23.0495 29.2173 22.2015 29.0618 21.4856 28.7507C20.7697 28.4396 20.2093 27.9986 19.8045 27.4276C19.3997 26.8523 19.176 26.1705 19.1333 25.3821H21.1149C21.1532 25.8551 21.3066 26.2493 21.5751 26.5646C21.8478 26.8757 22.1951 27.108 22.617 27.2614C23.0431 27.4105 23.5098 27.4851 24.0169 27.4851C24.5751 27.4851 25.0716 27.3977 25.5062 27.223C25.9451 27.044 26.2903 26.7969 26.5417 26.4815C26.7931 26.1619 26.9189 25.7891 26.9189 25.3629C26.9189 24.9751 26.8081 24.6577 26.5865 24.4105C26.3691 24.1634 26.073 23.9588 25.698 23.7969C25.3272 23.6349 24.9075 23.4922 24.4387 23.3686L22.8919 22.9467C21.8436 22.6612 21.0126 22.2415 20.399 21.6875C19.7896 21.1335 19.4849 20.4006 19.4849 19.4886C19.4849 18.7344 19.6895 18.076 20.0985 17.5135C20.5076 16.951 21.0616 16.5142 21.7605 16.2031C22.4593 15.8878 23.2477 15.7301 24.1255 15.7301C25.0119 15.7301 25.7939 15.8857 26.4714 16.1967C27.1532 16.5078 27.6902 16.9361 28.0822 17.4815C28.4743 18.0227 28.6788 18.6449 28.6958 19.348H26.791ZM35.473 29H31.2351V15.9091H35.6072C36.8899 15.9091 37.9915 16.1712 38.9119 16.6953C39.8324 17.2152 40.5376 17.9631 41.0277 18.9389C41.522 19.9105 41.7692 21.076 41.7692 22.4354C41.7692 23.799 41.5199 24.9709 41.0213 25.951C40.527 26.9311 39.8111 27.6854 38.8736 28.2138C37.9361 28.7379 36.8026 29 35.473 29ZM33.2102 27.2741H35.3643C36.3615 27.2741 37.1903 27.0866 37.8509 26.7116C38.5114 26.3324 39.0057 25.7848 39.3338 25.0689C39.6619 24.3487 39.826 23.4709 39.826 22.4354C39.826 21.4084 39.6619 20.5369 39.3338 19.821C39.0099 19.1051 38.5263 18.5618 37.8828 18.1911C37.2393 17.8203 36.4403 17.6349 35.4858 17.6349H33.2102V27.2741Z" fill="#572903"/>
<mask id="mask0_2618_54" style="mask-type:alpha" maskUnits="userSpaceOnUse" x="1" y="3" width="58" height="39">
<path d="M1.87829 24.94C0.771126 23.5017 0.771126 21.4983 1.8783 20.06L13.7991 4.57445C14.5563 3.59078 15.7273 3.01443 16.9687 3.01443H43.0313C44.2727 3.01443 45.4437 3.59078 46.2009 4.57445L58.1217 20.06C59.2289 21.4983 59.2289 23.5017 58.1217 24.94L46.2009 40.4255C45.4437 41.4092 44.2727 41.9856 43.0313 41.9856H16.9687C15.7273 41.9856 14.5563 41.4092 13.7991 40.4255L1.87829 24.94Z" fill="#D9D9D9"/>
</mask>
<g mask="url(#mask0_2618_54)">
<path d="M0 22.5L15 42H45L60 22.5L58.07 20L44.2011 37.4857C43.4423 38.4423 42.2882 39 41.0672 39H18.9328C17.7118 39 16.5577 38.4423 15.7989 37.4857L1.93 20L0 22.5Z" fill="url(#paint0_radial_2618_54)" fill-opacity="0.2"/>
</g>
</g>
<defs>
<radialGradient id="paint0_radial_2618_54" cx="0" cy="0" r="1" gradientUnits="userSpaceOnUse" gradientTransform="translate(30 42) rotate(-90) scale(23.5 34.0304)">
<stop offset="0.243163" stop-color="#333333"/>
<stop offset="1" stop-color="#333333" stop-opacity="0"/>
</radialGradient>
<clipPath id="clip0_2618_54">
<rect width="60" height="45" fill="white"/>
</clipPath>
</defs>
</svg>
