<svg width="29" height="29" viewBox="0 0 29 29" fill="none" xmlns="http://www.w3.org/2000/svg">
<circle cx="14.5" cy="14.5" r="14.5" fill="#FFF3E1"/>
<path d="M15.73 6L15.535 17.2937H13.4576L13.2626 6H15.73ZM14.5001 22C14.0851 22 13.7301 21.8503 13.4351 21.551C13.1401 21.2466 12.9951 20.8802 13.0001 20.4519C12.9951 20.0287 13.1401 19.6675 13.4351 19.3682C13.7301 19.0637 14.0851 18.9115 14.5001 18.9115C14.905 18.9115 15.255 19.0637 15.55 19.3682C15.845 19.6675 15.995 20.0287 16 20.4519C15.995 20.7357 15.9225 20.9963 15.7825 21.2337C15.6475 21.4659 15.4675 21.6517 15.2425 21.791C15.0175 21.9303 14.7701 22 14.5001 22Z" fill="#CF7C00"/>
</svg>
