<svg width="26" height="34" viewBox="0 0 26 34" fill="none" xmlns="http://www.w3.org/2000/svg">
<path fill-rule="evenodd" clip-rule="evenodd" d="M13 2C9.57784 2 6.8 4.7812 6.8 8.21804C6.8 11.6549 9.57784 14.4361 13 14.4361C16.4222 14.4361 19.2 11.6549 19.2 8.21804C19.2 4.7812 16.4222 2 13 2ZM4.8 8.21804C4.8 3.68135 8.46856 0 13 0C17.5314 0 21.2 3.68135 21.2 8.21804C21.2 12.7547 17.5314 16.4361 13 16.4361C8.46856 16.4361 4.8 12.7547 4.8 8.21804ZM17.8 21.9699L8.2 21.9699C4.77858 21.9699 2 24.752 2 28.1914V33C2 33.5523 1.55228 34 1 34C0.447715 34 0 33.5523 0 33V28.1914C0 23.6529 3.66851 19.9699 8.2 19.9699L17.8 19.9699C22.3315 19.9699 26 23.6529 26 28.1914V33C26 33.5523 25.5523 34 25 34C24.4477 34 24 33.5523 24 33V28.1914C24 24.752 21.2214 21.9699 17.8 21.9699Z" fill="#101010"/>
</svg>
