<svg width="1784" height="608" viewBox="0 0 1784 608" fill="none" xmlns="http://www.w3.org/2000/svg">
<g opacity="0.5">
<g filter="url(#filter0_f_962_2709)">
<path d="M1295.83 71.2896C1306.07 82.2725 1305.61 99.437 1294.79 109.848C1294.43 110.195 1293.84 110.144 1293.56 109.731C1285.6 98.1283 1286.02 82.494 1294.6 71.3398C1294.91 70.9435 1295.49 70.9239 1295.83 71.2896Z" fill="#4D94FF"/>
<path d="M1320.61 58.8647C1328.77 59.0861 1336.83 62.4665 1342.88 68.9562C1347.75 74.1773 1350.57 80.6096 1351.36 87.2414C1351.42 87.7373 1351.02 88.163 1350.52 88.1494C1331.92 87.6443 1314.12 79.5143 1301.43 65.8971C1301.09 65.5321 1301.14 64.9463 1301.54 64.6576C1307.26 60.6052 1313.96 58.6841 1320.61 58.8647Z" fill="#4D94FF"/>
<path d="M1299.73 115.877C1313.37 102.751 1331.88 95.4799 1350.8 95.9935C1351.04 96 1351.22 96.2138 1351.18 96.4499C1350.1 103.204 1346.91 109.66 1341.64 114.73C1329.91 126.014 1311.97 126.488 1299.75 116.475C1299.57 116.324 1299.56 116.042 1299.73 115.877Z" fill="#4D94FF"/>
</g>
<g filter="url(#filter1_f_962_2709)">
<path d="M1525.34 421.053C1542.43 453.7 1530.18 494.023 1497.81 511.634C1496.73 512.221 1495.38 511.719 1494.98 510.56C1483.68 477.924 1494.84 441.197 1522.39 420.371C1523.37 419.631 1524.77 419.966 1525.34 421.053Z" fill="#4D94FF"/>
<path d="M1592.06 407.748C1611.23 413.575 1628.11 426.813 1638.21 446.105C1646.33 461.625 1648.82 478.681 1646.4 494.896C1646.22 496.109 1645 496.856 1643.83 496.5C1600.11 483.211 1563.28 452.405 1542.09 411.927C1541.52 410.842 1542.01 409.485 1543.16 409.066C1559.32 403.188 1576.43 402.997 1592.06 407.748Z" fill="#4D94FF"/>
<path d="M1505.59 529.114C1546.4 506.911 1594.93 501.732 1639.38 515.245C1639.95 515.416 1640.23 516.039 1639.99 516.573C1633.03 531.853 1621.28 545.06 1605.52 553.637C1570.44 572.724 1527.67 562.187 1505.24 530.544C1504.91 530.066 1505.07 529.394 1505.59 529.114Z" fill="#4D94FF"/>
</g>
<g filter="url(#filter2_f_962_2709)">
<path d="M1579.49 52.0789C1604.18 99.2391 1586.48 157.486 1539.72 182.926C1538.16 183.773 1536.21 183.049 1535.63 181.374C1519.31 134.231 1535.44 81.1771 1575.23 51.0937C1576.65 50.0249 1578.67 50.5086 1579.49 52.0789Z" fill="#4D94FF"/>
<path d="M1675.88 32.8607C1703.56 41.2767 1727.94 60.4004 1742.53 88.2671C1754.27 110.686 1757.87 135.324 1754.37 158.747C1754.11 160.499 1752.34 161.579 1750.65 161.064C1687.5 141.867 1634.3 97.3684 1603.69 38.8964C1602.87 37.3293 1603.57 35.3686 1605.24 34.7638C1628.58 26.2729 1653.3 25.9967 1675.88 32.8607Z" fill="#4D94FF"/>
<path d="M1550.96 208.176C1609.91 176.104 1680.02 168.623 1744.23 188.142C1745.04 188.388 1745.46 189.288 1745.11 190.06C1735.06 212.133 1718.08 231.211 1695.31 243.6C1644.63 271.172 1582.86 255.951 1550.46 210.242C1549.97 209.551 1550.21 208.581 1550.96 208.176Z" fill="#4D94FF"/>
</g>
<g filter="url(#filter3_f_962_2709)">
<path d="M1412.76 289.224C1413.95 280.619 1421.83 274.561 1430.45 275.615C1430.74 275.65 1430.93 275.931 1430.84 276.208C1428.54 284.017 1421.37 289.535 1413.23 289.758C1412.94 289.766 1412.72 289.51 1412.76 289.224Z" fill="#4D94FF"/>
<path d="M1398.14 282.639C1395.26 278.896 1393.83 274.044 1394.53 268.96C1395.1 264.869 1396.96 261.256 1399.64 258.476C1399.84 258.268 1400.18 258.292 1400.36 258.521C1406.93 267.057 1409.77 278.012 1408.3 288.681C1408.26 288.967 1407.98 289.16 1407.7 289.083C1403.79 287.998 1400.48 285.691 1398.14 282.639Z" fill="#4D94FF"/>
<path d="M1431.35 271.195C1420.48 269.866 1410.46 264.213 1403.78 255.533C1403.69 255.423 1403.72 255.264 1403.84 255.195C1407.27 253.216 1411.33 252.291 1415.53 252.804C1424.88 253.947 1431.64 261.825 1431.61 270.968C1431.61 271.106 1431.49 271.212 1431.35 271.195Z" fill="#4D94FF"/>
</g>
<g filter="url(#filter4_f_962_2709)">
<path d="M196.883 558.482C198.278 518.737 231.298 487.46 271.06 488.221C272.384 488.246 273.383 489.437 273.141 490.739C266.318 527.379 236.241 555.868 199.285 560.696C197.972 560.868 196.836 559.806 196.883 558.482Z" fill="#4D94FF"/>
<path d="M127.2 535.346C112.334 519.651 103.568 498.224 104.393 474.739C105.056 455.845 111.824 438.518 122.749 424.601C123.565 423.56 125.112 423.511 126.022 424.472C159.93 460.271 178.03 508.822 176.3 558.1C176.254 559.421 175.072 560.434 173.769 560.212C155.477 557.101 139.325 548.147 127.2 535.346Z" fill="#4D94FF"/>
<path d="M273.093 467.672C222.964 466.713 174.674 445.662 140.195 409.262C139.759 408.802 139.823 408.064 140.336 407.693C155.019 397.075 173.087 390.959 192.451 391.329C235.546 392.153 270.033 424.864 274.176 466.513C274.239 467.142 273.725 467.684 273.093 467.672Z" fill="#4D94FF"/>
</g>
<g filter="url(#filter5_f_962_2709)">
<path d="M407.628 89.5525C429.829 84.604 451.894 98.3795 457.196 120.498C457.372 121.235 456.857 121.959 456.102 122.012C434.838 123.509 414.74 110.962 406.749 91.2006C406.465 90.4985 406.889 89.7173 407.628 89.5525Z" fill="#4D94FF"/>
<path d="M410.405 47.6518C416.953 37.1642 427.551 29.2284 440.669 26.3043C451.223 23.9519 461.788 25.2043 471.064 29.2481C471.757 29.5505 472.007 30.3994 471.606 31.0412C456.672 54.9629 432.403 71.9692 404.877 78.1046C404.14 78.269 403.409 77.7607 403.344 77.0077C402.433 66.4351 405.065 56.2055 410.405 47.6518Z" fill="#4D94FF"/>
<path d="M468.862 118.665C462.178 90.7804 466.88 61.021 482.065 36.697C482.257 36.3898 482.674 36.3188 482.954 36.5494C490.944 43.1483 496.93 52.2691 499.513 63.0407C505.259 87.0131 492.117 110.81 469.66 119.098C469.321 119.224 468.947 119.017 468.862 118.665Z" fill="#4D94FF"/>
</g>
<g filter="url(#filter6_f_962_2709)">
<path d="M177.753 171.018C205.494 184.428 217.348 217.612 204.382 245.563C203.95 246.494 202.794 246.83 201.947 246.251C178.103 229.963 167.306 199.738 175.433 172.029C175.722 171.045 176.829 170.572 177.753 171.018Z" fill="#4D94FF"/>
<path d="M215.932 128.848C231.705 123.214 249.634 123.696 266.026 131.62C279.214 137.995 289.382 148.208 295.834 160.302C296.317 161.207 295.868 162.318 294.903 162.663C258.927 175.514 218.851 173.172 184.456 156.546C183.534 156.1 183.186 154.946 183.75 154.091C191.672 142.096 203.068 133.444 215.932 128.848Z" fill="#4D94FF"/>
<path d="M218.314 253.426C234.66 218.187 264.676 190.532 301.256 177.464C301.719 177.299 302.221 177.574 302.324 178.054C305.263 191.782 303.953 206.503 297.638 220.115C283.586 250.408 249.619 264.635 218.797 254.556C218.332 254.404 218.108 253.87 218.314 253.426Z" fill="#4D94FF"/>
</g>
<g filter="url(#filter7_f_962_2709)">
<path d="M37.277 139.788C37.6745 128.462 47.0841 119.55 58.4149 119.766C58.7922 119.774 59.0768 120.113 59.0078 120.484C57.0634 130.925 48.4927 139.043 37.9614 140.419C37.5873 140.468 37.2638 140.165 37.277 139.788Z" fill="#4D94FF"/>
<path d="M17.4199 133.195C13.1836 128.723 10.6858 122.617 10.9207 115.925C11.1096 110.54 13.0383 105.603 16.1514 101.637C16.3842 101.34 16.8248 101.327 17.0841 101.6C26.7469 111.802 31.9045 125.637 31.4116 139.68C31.3984 140.056 31.0617 140.345 30.6904 140.281C25.4779 139.395 20.8751 136.843 17.4199 133.195Z" fill="#4D94FF"/>
<path d="M58.9941 113.911C44.7092 113.638 30.9482 107.639 21.1229 97.2659C20.9988 97.1348 21.0169 96.9247 21.1631 96.8189C25.3472 93.7931 30.4961 92.0502 36.0141 92.1557C48.2946 92.3906 58.1221 101.712 59.3028 113.58C59.3207 113.76 59.1743 113.914 58.9941 113.911Z" fill="#4D94FF"/>
</g>
<g filter="url(#filter8_f_962_2709)">
<path d="M405.013 590.079C414.918 580.74 430.483 581.074 439.979 590.828C440.295 591.153 440.252 591.683 439.879 591.942C429.4 599.219 415.223 598.915 405.065 591.196C404.704 590.922 404.683 590.39 405.013 590.079Z" fill="#4D94FF"/>
<path d="M393.619 567.677C393.777 560.279 396.8 552.953 402.653 547.435C407.362 542.995 413.179 540.407 419.188 539.648C419.637 539.591 420.025 539.952 420.016 540.404C419.654 557.279 412.375 573.454 400.094 585.033C399.765 585.343 399.234 585.305 398.97 584.938C395.266 579.778 393.489 573.711 393.619 567.677Z" fill="#4D94FF"/>
<path d="M445.419 586.316C433.447 574.018 426.759 557.272 427.126 540.113C427.131 539.896 427.324 539.732 427.538 539.765C433.668 540.714 439.538 543.574 444.163 548.324C454.454 558.896 454.977 575.159 445.962 586.294C445.826 586.462 445.57 586.471 445.419 586.316Z" fill="#4D94FF"/>
</g>
</g>
<defs>
<filter id="filter0_f_962_2709" x="1279.87" y="50.853" width="79.5039" height="80.7578" filterUnits="userSpaceOnUse" color-interpolation-filters="sRGB">
<feFlood flood-opacity="0" result="BackgroundImageFix"/>
<feBlend mode="normal" in="SourceGraphic" in2="BackgroundImageFix" result="shape"/>
<feGaussianBlur stdDeviation="4" result="effect1_foregroundBlur_962_2709"/>
</filter>
<filter id="filter1_f_962_2709" x="1483.61" y="397.401" width="170.676" height="172.766" filterUnits="userSpaceOnUse" color-interpolation-filters="sRGB">
<feFlood flood-opacity="0" result="BackgroundImageFix"/>
<feBlend mode="normal" in="SourceGraphic" in2="BackgroundImageFix" result="shape"/>
<feGaussianBlur stdDeviation="3.5" result="effect1_foregroundBlur_962_2709"/>
</filter>
<filter id="filter2_f_962_2709" x="1526.33" y="25.0251" width="232.32" height="235.341" filterUnits="userSpaceOnUse" color-interpolation-filters="sRGB">
<feFlood flood-opacity="0" result="BackgroundImageFix"/>
<feBlend mode="normal" in="SourceGraphic" in2="BackgroundImageFix" result="shape"/>
<feGaussianBlur stdDeviation="1.5" result="effect1_foregroundBlur_962_2709"/>
</filter>
<filter id="filter3_f_962_2709" x="1384.36" y="242.664" width="57.2539" height="57.0941" filterUnits="userSpaceOnUse" color-interpolation-filters="sRGB">
<feFlood flood-opacity="0" result="BackgroundImageFix"/>
<feBlend mode="normal" in="SourceGraphic" in2="BackgroundImageFix" result="shape"/>
<feGaussianBlur stdDeviation="5" result="effect1_foregroundBlur_962_2709"/>
</filter>
<filter id="filter4_f_962_2709" x="99.3398" y="386.313" width="179.84" height="179.401" filterUnits="userSpaceOnUse" color-interpolation-filters="sRGB">
<feFlood flood-opacity="0" result="BackgroundImageFix"/>
<feBlend mode="normal" in="SourceGraphic" in2="BackgroundImageFix" result="shape"/>
<feGaussianBlur stdDeviation="2.5" result="effect1_foregroundBlur_962_2709"/>
</filter>
<filter id="filter5_f_962_2709" x="395.168" y="17.123" width="113.691" height="113.01" filterUnits="userSpaceOnUse" color-interpolation-filters="sRGB">
<feFlood flood-opacity="0" result="BackgroundImageFix"/>
<feBlend mode="normal" in="SourceGraphic" in2="BackgroundImageFix" result="shape"/>
<feGaussianBlur stdDeviation="4" result="effect1_foregroundBlur_962_2709"/>
</filter>
<filter id="filter6_f_962_2709" x="165.754" y="118.076" width="145.066" height="146.692" filterUnits="userSpaceOnUse" color-interpolation-filters="sRGB">
<feFlood flood-opacity="0" result="BackgroundImageFix"/>
<feBlend mode="normal" in="SourceGraphic" in2="BackgroundImageFix" result="shape"/>
<feGaussianBlur stdDeviation="3.5" result="effect1_foregroundBlur_962_2709"/>
</filter>
<filter id="filter7_f_962_2709" x="0.90625" y="82.1512" width="68.3984" height="68.2732" filterUnits="userSpaceOnUse" color-interpolation-filters="sRGB">
<feFlood flood-opacity="0" result="BackgroundImageFix"/>
<feBlend mode="normal" in="SourceGraphic" in2="BackgroundImageFix" result="shape"/>
<feGaussianBlur stdDeviation="5" result="effect1_foregroundBlur_962_2709"/>
</filter>
<filter id="filter8_f_962_2709" x="383.613" y="529.642" width="78.7148" height="77.5575" filterUnits="userSpaceOnUse" color-interpolation-filters="sRGB">
<feFlood flood-opacity="0" result="BackgroundImageFix"/>
<feBlend mode="normal" in="SourceGraphic" in2="BackgroundImageFix" result="shape"/>
<feGaussianBlur stdDeviation="5" result="effect1_foregroundBlur_962_2709"/>
</filter>
</defs>
</svg>
