<?xml version="1.0" standalone="no"?>
<!DOCTYPE svg PUBLIC "-//W3C//DTD SVG 20010904//EN"
 "http://www.w3.org/TR/2001/REC-SVG-20010904/DTD/svg10.dtd">
<svg version="1.0" xmlns="http://www.w3.org/2000/svg"
 width="167.000000pt" height="167.000000pt" viewBox="0 0 167.000000 167.000000"
 preserveAspectRatio="xMidYMid meet">

<g transform="translate(0.000000,167.000000) scale(0.100000,-0.100000)"
fill="#000000" stroke="none">
<path d="M705 1660 c-327 -52 -597 -299 -681 -625 -25 -97 -25 -303 0 -400 78
-300 311 -533 611 -611 97 -25 303 -25 400 0 300 78 533 311 611 611 25 97 25
303 0 400 -77 299 -315 537 -609 609 -82 21 -250 28 -332 16z m255 -84 c328
-59 574 -317 621 -651 47 -333 -164 -676 -488 -795 -172 -62 -344 -62 -515 0
-324 118 -534 458 -489 791 57 431 454 730 871 655z"/>
<path d="M586 1310 c-73 -23 -139 -97 -151 -171 -32 -187 174 -325 333 -222
174 113 106 383 -101 398 -28 3 -65 0 -81 -5z m134 -79 c42 -22 80 -83 80
-129 0 -78 -73 -152 -150 -152 -76 0 -150 74 -150 150 0 109 124 183 220 131z"/>
<path d="M1026 1050 c-72 -22 -139 -97 -151 -171 -36 -210 218 -342 369 -192
159 157 -2 427 -218 363z m130 -76 c73 -35 105 -133 66 -204 -23 -42 -84 -80
-130 -80 -78 0 -152 73 -152 150 0 107 118 180 216 134z"/>
<path d="M586 780 c-136 -41 -197 -208 -119 -328 86 -133 280 -133 366 0 109
169 -54 385 -247 328z m134 -80 c45 -23 80 -80 80 -130 0 -76 -74 -150 -150
-150 -76 0 -150 74 -150 150 0 48 35 107 78 129 48 26 93 26 142 1z"/>
</g>
</svg>
