<svg width="42" height="42" viewBox="0 0 42 42" fill="none" xmlns="http://www.w3.org/2000/svg">
<path fill-rule="evenodd" clip-rule="evenodd" d="M12.4286 2C11.4029 2 10.5714 2.83147 10.5714 3.85714V15.2857C10.5714 21.0453 15.2405 25.7143 21 25.7143C26.7595 25.7143 31.4286 21.0453 31.4286 15.2857V3.85714C31.4286 2.83147 30.5971 2 29.5714 2H12.4286ZM33.4286 5.71429V3.85714C33.4286 1.7269 31.7017 0 29.5714 0H12.4286C10.2983 0 8.57143 1.7269 8.57143 3.85714V5.71429H6.71429C3.00609 5.71429 0 8.72037 0 12.4286C0 16.1368 3.00609 19.1429 6.71429 19.1429H9.18157C10.7055 23.8152 14.9229 27.2704 20 27.6746V40H11C10.4477 40 10 40.4477 10 41C10 41.5523 10.4477 42 11 42H31C31.5523 42 32 41.5523 32 41C32 40.4477 31.5523 40 31 40H22V27.6746C27.0771 27.2704 31.2945 23.8152 32.8184 19.1429H35.2857C38.9939 19.1429 42 16.1368 42 12.4286C42 8.72037 38.9939 5.71429 35.2857 5.71429H33.4286ZM33.4286 7.71429V15.2857C33.4286 15.9169 33.3815 16.537 33.2908 17.1429H35.2857C37.8893 17.1429 40 15.0322 40 12.4286C40 9.82494 37.8893 7.71429 35.2857 7.71429H33.4286ZM8.70925 17.1429C8.61847 16.537 8.57143 15.9169 8.57143 15.2857V7.71429H6.71429C4.11066 7.71429 2 9.82494 2 12.4286C2 15.0322 4.11066 17.1429 6.71429 17.1429H8.70925Z" fill="#101010"/>
</svg>
