<svg width="28" height="27" viewBox="0 0 28 27" fill="none" xmlns="http://www.w3.org/2000/svg">
<path fill-rule="evenodd" clip-rule="evenodd" d="M16.4323 0.291435C16.8225 -0.0971449 17.4534 -0.0971449 17.8436 0.291435L26.8091 9.22001C26.9975 9.40766 27.1034 9.66264 27.1034 9.92857C27.1034 10.1945 26.9975 10.4495 26.8091 10.6371L10.6712 26.7086C10.4837 26.8952 10.23 27 9.96552 27H1C0.447715 27 0 26.5523 0 26V17.0714C0 16.8055 0.105924 16.5505 0.294355 16.3629L16.4323 0.291435ZM11.7586 7.76845L2 17.4869V25H9.55251L19.307 15.2857L11.7586 7.76845ZM20.7241 13.8744L13.1758 6.35714L17.1379 2.4113L24.6863 9.92857L20.7241 13.8744ZM18 26C18 25.4477 18.4477 25 19 25H27C27.5523 25 28 25.4477 28 26C28 26.5523 27.5523 27 27 27H19C18.4477 27 18 26.5523 18 26Z" fill="#101010"/>
</svg>
