<svg width="29" height="29" viewBox="0 0 29 29" fill="none" xmlns="http://www.w3.org/2000/svg">
    <path d="M10.1888 2.66561L0.515087 22.0213C-1.08735 25.2276 1.24313 29 4.82629 29H24.1737C27.7569 29 30.0873 25.2276 28.4849 22.0213L18.8112 2.66561C17.0349 -0.888538 11.9651 -0.888535 10.1888 2.66561Z" fill="#FFD0D0"/>
    <path d="M15.73 8L15.535 19.2937H13.4576L13.2626 8H15.73ZM14.5001 24C14.0851 24 13.7301 23.8503 13.4351 23.551C13.1401 23.2466 12.9951 22.8802 13.0001 22.4519C12.9951 22.0287 13.1401 21.6675 13.4351 21.3682C13.7301 21.0637 14.0851 20.9115 14.5001 20.9115C14.905 20.9115 15.255 21.0637 15.55 21.3682C15.845 21.6675 15.995 22.0287 16 22.4519C15.995 22.7357 15.9225 22.9963 15.7825 23.2337C15.6475 23.4659 15.4675 23.6517 15.2425 23.791C15.0175 23.9303 14.7701 24 14.5001 24Z" fill="#B81F1F"/>
</svg>
