<svg width="39" height="28" viewBox="0 0 39 28" fill="none" xmlns="http://www.w3.org/2000/svg">
    <path fill-rule="evenodd" clip-rule="evenodd" d="M0 1C0 0.447715 0.447715 0 1 0H38C38.5523 0 39 0.447715 39 1C39 1.55228 38.5523 2 38 2H1C0.447715 2 0 1.55228 0 1ZM7.4 14C7.4 13.4477 7.84771 13 8.4 13H30.6C31.1523 13 31.6 13.4477 31.6 14C31.6 14.5523 31.1523 15 30.6 15H8.4C7.84771 15 7.4 14.5523 7.4 14ZM12.3333 27C12.3333 26.4477 12.781 26 13.3333 26H25.6667C26.219 26 26.6667 26.4477 26.6667 27C26.6667 27.5523 26.219 28 25.6667 28H13.3333C12.781 28 12.3333 27.5523 12.3333 27Z" fill="#101010"/>
</svg>
