<svg xmlns="http://www.w3.org/2000/svg" width="31" height="31" viewBox="0 0 31 31" fill="none">
<path d="M15.4984 0C24.0598 0 31 6.94021 31 15.5015C31 24.0613 24.0598 31 15.4984 31C6.93711 31.0016 2.59584e-07 24.0613 2.59584e-07 15.5015C-0.00154959 6.94021 6.93711 0 15.4984 0ZM15.4984 2.32477C13.7561 2.30587 12.0274 2.63272 10.4122 3.2864C8.79704 3.94008 7.32756 4.90761 6.08882 6.133C4.85007 7.35838 3.86666 8.81727 3.1955 10.4253C2.52434 12.0332 2.17876 13.7584 2.17876 15.5008C2.17876 17.2432 2.52434 18.9683 3.1955 20.5763C3.86666 22.1843 4.85007 23.6432 6.08882 24.8686C7.32756 26.0939 8.79704 27.0615 10.4122 27.7151C12.0274 28.3688 13.7561 28.6957 15.4984 28.6768C18.9682 28.6392 22.283 27.2344 24.7233 24.7675C27.1636 22.3006 28.5323 18.9707 28.5323 15.5008C28.5323 12.0308 27.1636 8.70094 24.7233 6.23404C22.283 3.76715 18.9682 2.3624 15.4984 2.32477ZM15.4923 13.1737C15.7734 13.1733 16.0452 13.2749 16.2572 13.4595C16.4692 13.6442 16.6071 13.8994 16.6453 14.178L16.6562 14.3361L16.6624 22.8633C16.6654 23.1599 16.5549 23.4465 16.3535 23.6642C16.1522 23.882 15.8752 24.0146 15.5792 24.0348C15.2833 24.055 14.9908 23.9613 14.7617 23.7729C14.5326 23.5845 14.3842 23.3157 14.3469 23.0214L14.3376 22.8649L14.3314 14.3376C14.3314 14.0293 14.4539 13.7337 14.6719 13.5157C14.8899 13.2977 15.1855 13.1752 15.4938 13.1752L15.4923 13.1737ZM15.5 7.75387C15.7073 7.74731 15.9139 7.78248 16.1074 7.8573C16.3009 7.93212 16.4773 8.04505 16.6263 8.1894C16.7753 8.33375 16.8938 8.50657 16.9747 8.69759C17.0556 8.88861 17.0973 9.09395 17.0973 9.30139C17.0973 9.50884 17.0556 9.71418 16.9747 9.9052C16.8938 10.0962 16.7753 10.269 16.6263 10.4134C16.4773 10.5577 16.3009 10.6707 16.1074 10.7455C15.9139 10.8203 15.7073 10.8555 15.5 10.8489C15.098 10.8362 14.7168 10.6676 14.437 10.3787C14.1572 10.0899 14.0007 9.70355 14.0007 9.30139C14.0007 8.89924 14.1572 8.51287 14.437 8.22404C14.7168 7.93521 15.098 7.7666 15.5 7.75387Z" fill="#101010"/>
</svg>