<?xml version="1.0" standalone="no"?>
<!DOCTYPE svg PUBLIC "-//W3C//DTD SVG 20010904//EN"
 "http://www.w3.org/TR/2001/REC-SVG-20010904/DTD/svg10.dtd">
<svg version="1.0" xmlns="http://www.w3.org/2000/svg"
 width="167.000000pt" height="167.000000pt" viewBox="0 0 167.000000 167.000000"
 preserveAspectRatio="xMidYMid meet">

<g transform="translate(0.000000,167.000000) scale(0.100000,-0.100000)"
fill="#000000" stroke="none">
<path d="M705 1660 c-327 -52 -597 -299 -681 -625 -25 -97 -25 -303 0 -400 78
-300 311 -533 611 -611 97 -25 303 -25 400 0 300 78 533 311 611 611 25 97 25
303 0 400 -77 299 -315 537 -609 609 -82 21 -250 28 -332 16z m255 -84 c328
-59 574 -317 621 -651 47 -333 -164 -676 -488 -795 -172 -62 -344 -62 -515 0
-324 118 -534 458 -489 791 57 431 454 730 871 655z"/>
<path d="M795 1365 l-25 -24 0 -496 0 -496 25 -24 c30 -30 54 -31 89 -4 l26
20 0 500 0 500 -25 24 c-13 14 -33 25 -45 25 -11 0 -32 -11 -45 -25z"/>
<path d="M465 1245 l-25 -24 0 -386 0 -386 25 -24 c31 -32 59 -32 90 0 l25 24
0 386 0 386 -25 24 c-13 14 -33 25 -45 25 -11 0 -32 -11 -45 -25z"/>
<path d="M1125 1245 l-25 -24 0 -386 0 -386 25 -24 c30 -30 54 -31 89 -4 l26
20 0 390 0 390 -25 24 c-13 14 -33 25 -45 25 -11 0 -32 -11 -45 -25z"/>
</g>
</svg>
