<svg width="40" height="40" viewBox="0 0 40 40" fill="none" xmlns="http://www.w3.org/2000/svg">
<path fill-rule="evenodd" clip-rule="evenodd" d="M20 38C29.9411 38 38 29.9411 38 20C38 10.0589 29.9411 2 20 2C10.0589 2 2 10.0589 2 20C2 29.9411 10.0589 38 20 38ZM20 40C31.0457 40 40 31.0457 40 20C40 8.9543 31.0457 0 20 0C8.9543 0 0 8.9543 0 20C0 31.0457 8.9543 40 20 40Z" fill="#101010"/>
<path fill-rule="evenodd" clip-rule="evenodd" d="M20 9C20.5523 9 21 9.44772 21 10V30C21 30.5523 20.5523 31 20 31C19.4477 31 19 30.5523 19 30V10C19 9.44771 19.4477 9 20 9ZM14 13C14.5523 13 15 13.4477 15 14L15 26C15 26.5523 14.5523 27 14 27C13.4477 27 13 26.5523 13 26L13 14C13 13.4477 13.4477 13 14 13ZM26 13C26.5523 13 27 13.4477 27 14V26C27 26.5523 26.5523 27 26 27C25.4477 27 25 26.5523 25 26V14C25 13.4477 25.4477 13 26 13Z" fill="#101010"/>
</svg>
