<?xml version="1.0" standalone="no"?>
<!DOCTYPE svg PUBLIC "-//W3C//DTD SVG 20010904//EN"
 "http://www.w3.org/TR/2001/REC-SVG-20010904/DTD/svg10.dtd">
<svg version="1.0" xmlns="http://www.w3.org/2000/svg"
 width="167.000000pt" height="167.000000pt" viewBox="0 0 167.000000 167.000000"
 preserveAspectRatio="xMidYMid meet">

<g transform="translate(0.000000,167.000000) scale(0.100000,-0.100000)"
fill="#000000" stroke="none">
<path d="M705 1660 c-327 -52 -597 -299 -681 -625 -25 -97 -25 -303 0 -400 78
-300 311 -533 611 -611 97 -25 303 -25 400 0 300 78 533 311 611 611 25 97 25
303 0 400 -77 299 -315 537 -609 609 -82 21 -250 28 -332 16z m255 -84 c328
-59 574 -317 621 -651 47 -333 -164 -676 -488 -795 -172 -62 -344 -62 -515 0
-324 118 -534 458 -489 791 57 431 454 730 871 655z"/>
<path d="M668 1351 c-161 -52 -298 -189 -349 -350 -29 -91 -29 -241 0 -332 37
-117 126 -230 236 -298 57 -36 161 -71 211 -71 l34 0 0 535 0 535 -37 -1 c-21
0 -64 -8 -95 -18z m62 -516 c0 -369 -2 -445 -14 -445 -37 0 -156 74 -210 129
-173 183 -173 449 0 632 54 55 173 129 210 129 12 0 14 -76 14 -445z"/>
<path d="M870 835 l0 -535 34 0 c50 0 154 35 211 71 168 105 257 266 257 464
0 198 -89 359 -257 464 -57 36 -161 71 -211 71 l-34 0 0 -535z m167 410 c131
-66 229 -199 252 -345 30 -187 -76 -387 -252 -475 -38 -19 -76 -35 -83 -35
-12 0 -14 76 -14 445 0 369 2 445 14 445 7 0 45 -16 83 -35z"/>
</g>
</svg>
