<svg width="515" height="352" viewBox="0 0 515 352" fill="none" xmlns="http://www.w3.org/2000/svg">
<path d="M406.55 385.346C365.78 357.821 345.395 344.059 330.293 326.678C282.308 271.447 275.746 178.154 315.527 116.75C328.047 97.4257 343.271 83.6831 373.721 56.198C435.42 0.505173 492.043 -40.1575 504.501 -15.5008C534.06 43.0024 496.171 307.804 411.173 385.074C410.765 385.445 410.561 385.631 410.314 385.781C409.506 386.272 408.455 386.348 407.584 385.978C407.318 385.865 407.062 385.692 406.55 385.346Z" fill="#4C94FF"/>
<path d="M100.901 441.385C38.4933 429.032 -19.0889 392.808 -57.2147 335.592C-88.9152 288.019 -102.137 233.478 -98.56 180.413C-98.4864 179.32 -97.4665 178.545 -96.3914 178.758C49.3484 207.607 177.885 293.768 260.268 417.402C260.875 418.313 260.553 419.556 259.574 420.046C209.212 445.246 153.417 451.78 100.901 441.385Z" fill="#4C94FF"/>
<path d="M315.524 27.8344C195.366 99.145 135.287 134.8 97.0348 141.37C58.7831 147.94 14.7342 139.221 -73.3635 121.782L-80.0543 120.458C-83.1645 119.842 -84.7196 119.535 -85.3981 118.34C-86.0765 117.146 -85.5534 115.677 -84.5072 112.741C-67.1773 64.0971 -34.7352 20.4303 11.2998 -10.5381C116.924 -81.5932 478.501 -12.5004 392.001 -3.0004C370.092 -0.594279 343.308 11.3451 315.524 27.8344Z" fill="#4C94FF"/>
</svg>
