<svg width="60" height="45" viewBox="0 0 60 45" fill="none" xmlns="http://www.w3.org/2000/svg">
<g clip-path="url(#clip0_2656_54)">
<path d="M1.87829 24.94C0.771126 23.5017 0.771126 21.4983 1.8783 20.06L13.7991 4.57445C14.5563 3.59078 15.7273 3.01443 16.9687 3.01443H43.0313C44.2727 3.01443 45.4437 3.59078 46.2009 4.57445L58.1217 20.06C59.2289 21.4983 59.2289 23.5017 58.1217 24.94L46.2009 40.4255C45.4437 41.4092 44.2727 41.9856 43.0313 41.9856H16.9687C15.7273 41.9856 14.5563 41.4092 13.7991 40.4255L1.87829 24.94Z" fill="#85C0F0"/>
<path d="M24.0394 29.179C23.1616 29.179 22.3775 29.0277 21.6871 28.7251C21.0011 28.4226 20.4577 28.0028 20.0572 27.4659C19.6609 26.9247 19.4478 26.2983 19.418 25.5866H21.4251C21.4506 25.9744 21.5806 26.3111 21.815 26.5966C22.0536 26.8778 22.3647 27.0952 22.7482 27.2486C23.1317 27.402 23.5579 27.4787 24.0266 27.4787C24.5423 27.4787 24.9982 27.3892 25.3945 27.2102C25.7951 27.0312 26.1083 26.782 26.3342 26.4624C26.56 26.1385 26.6729 25.7656 26.6729 25.3438C26.6729 24.9048 26.56 24.5192 26.3342 24.1868C26.1126 23.8501 25.7866 23.5859 25.3562 23.3942C24.93 23.2024 24.4144 23.1065 23.8093 23.1065H22.7035V21.4957H23.8093C24.2951 21.4957 24.7212 21.4084 25.0877 21.2337C25.4585 21.0589 25.7482 20.8161 25.957 20.505C26.1658 20.1896 26.2702 19.821 26.2702 19.3991C26.2702 18.9943 26.1786 18.6428 25.9954 18.3445C25.8164 18.0419 25.5607 17.8054 25.2283 17.6349C24.9002 17.4645 24.5124 17.3793 24.065 17.3793C23.6388 17.3793 23.2404 17.4581 22.8697 17.6158C22.5032 17.7692 22.2049 17.9908 21.9748 18.2805C21.7447 18.5661 21.6211 18.9091 21.604 19.3097H19.6928C19.7141 18.6023 19.9229 17.9801 20.3192 17.4432C20.7198 16.9062 21.2482 16.4865 21.9045 16.1839C22.5607 15.8814 23.2894 15.7301 24.0906 15.7301C24.93 15.7301 25.6545 15.8942 26.2638 16.2223C26.8775 16.5462 27.3505 16.9787 27.6829 17.5199C28.0195 18.0611 28.1857 18.6534 28.1815 19.2969C28.1857 20.0298 27.9812 20.652 27.5678 21.1634C27.1587 21.6747 26.6133 22.0178 25.9315 22.1925V22.2947C26.8008 22.4268 27.4741 22.772 27.9514 23.3303C28.4329 23.8885 28.6715 24.581 28.6673 25.4077C28.6715 26.1278 28.4712 26.7734 28.0664 27.3445C27.6658 27.9155 27.1183 28.3651 26.4237 28.6932C25.729 29.017 24.9343 29.179 24.0394 29.179ZM31.2624 29V15.9091H33.2376V22.1605H33.3974L38.8881 15.9091H41.3746L36.0948 21.8026L41.3938 29H39.016L34.7844 23.1513L33.2376 24.9283V29H31.2624Z" fill="#4D4D4D"/>
<mask id="mask0_2656_54" style="mask-type:alpha" maskUnits="userSpaceOnUse" x="1" y="3" width="58" height="39">
<path d="M1.87829 24.94C0.771126 23.5017 0.771126 21.4983 1.8783 20.06L13.7991 4.57445C14.5563 3.59078 15.7273 3.01443 16.9687 3.01443H43.0313C44.2727 3.01443 45.4437 3.59078 46.2009 4.57445L58.1217 20.06C59.2289 21.4983 59.2289 23.5017 58.1217 24.94L46.2009 40.4255C45.4437 41.4092 44.2727 41.9856 43.0313 41.9856H16.9687C15.7273 41.9856 14.5563 41.4092 13.7991 40.4255L1.87829 24.94Z" fill="#D9D9D9"/>
</mask>
<g mask="url(#mask0_2656_54)">
<path d="M0 22.5L15 42H45L60 22.5L58.07 20L44.2011 37.4857C43.4423 38.4423 42.2882 39 41.0672 39H18.9328C17.7118 39 16.5577 38.4423 15.7989 37.4857L1.93 20L0 22.5Z" fill="url(#paint0_radial_2656_54)" fill-opacity="0.2"/>
</g>
</g>
<defs>
<radialGradient id="paint0_radial_2656_54" cx="0" cy="0" r="1" gradientUnits="userSpaceOnUse" gradientTransform="translate(30 42) rotate(-90) scale(23.5 34.0304)">
<stop offset="0.225962" stop-color="#4E3A44"/>
<stop offset="1" stop-color="#333333" stop-opacity="0"/>
</radialGradient>
<clipPath id="clip0_2656_54">
<rect width="60" height="45" fill="white"/>
</clipPath>
</defs>
</svg>
