<svg width="60" height="45" viewBox="0 0 60 45" fill="none" xmlns="http://www.w3.org/2000/svg">
<g clip-path="url(#clip0_2656_24)">
<path d="M1.87829 24.94C0.771126 23.5017 0.771126 21.4983 1.8783 20.06L13.7991 4.57445C14.5563 3.59078 15.7273 3.01443 16.9687 3.01443H43.0313C44.2727 3.01443 45.4437 3.59078 46.2009 4.57445L58.1217 20.06C59.2289 21.4983 59.2289 23.5017 58.1217 24.94L46.2009 40.4255C45.4437 41.4092 44.2727 41.9856 43.0313 41.9856H16.9687C15.7273 41.9856 14.5563 41.4092 13.7991 40.4255L1.87829 24.94Z" fill="#85C0F0"/>
<path d="M24.0194 29.179C23.1032 29.179 22.2936 29.0213 21.5905 28.706C20.8916 28.3906 20.344 27.956 19.9477 27.402C19.5514 26.848 19.3554 26.2173 19.3596 25.5099C19.3554 24.956 19.4683 24.4467 19.6984 23.9822C19.9328 23.5135 20.2503 23.1236 20.6508 22.8125C21.0514 22.4972 21.4988 22.2969 21.9932 22.2116V22.1349C21.3412 21.9773 20.8192 21.6278 20.4271 21.0866C20.0351 20.5455 19.8412 19.9233 19.8454 19.2202C19.8412 18.5511 20.018 17.9545 20.376 17.4304C20.7382 16.902 21.2346 16.4865 21.8653 16.1839C22.496 15.8814 23.214 15.7301 24.0194 15.7301C24.8163 15.7301 25.528 15.8835 26.1544 16.1903C26.7851 16.4929 27.2815 16.9084 27.6437 17.4368C28.0059 17.9609 28.1892 18.5554 28.1934 19.2202C28.1892 19.9233 27.9889 20.5455 27.5926 21.0866C27.1963 21.6278 26.6807 21.9773 26.0457 22.1349V22.2116C26.5358 22.2969 26.9768 22.4972 27.3689 22.8125C27.7652 23.1236 28.0805 23.5135 28.3149 23.9822C28.5535 24.4467 28.675 24.956 28.6792 25.5099C28.675 26.2173 28.4747 26.848 28.0784 27.402C27.6821 27.956 27.1324 28.3906 26.4292 28.706C25.7304 29.0213 24.9271 29.179 24.0194 29.179ZM24.0194 27.5618C24.5606 27.5618 25.0294 27.4723 25.4257 27.2933C25.822 27.1101 26.1288 26.8565 26.3461 26.5327C26.5635 26.2045 26.6743 25.821 26.6785 25.3821C26.6743 24.9261 26.555 24.5234 26.3206 24.174C26.0905 23.8246 25.7773 23.5497 25.3809 23.3494C24.9846 23.1491 24.5308 23.049 24.0194 23.049C23.5038 23.049 23.0457 23.1491 22.6452 23.3494C22.2446 23.5497 21.9292 23.8246 21.6991 24.174C21.469 24.5234 21.3561 24.9261 21.3604 25.3821C21.3561 25.821 21.4605 26.2045 21.6736 26.5327C21.8909 26.8565 22.1998 27.1101 22.6004 27.2933C23.001 27.4723 23.474 27.5618 24.0194 27.5618ZM24.0194 21.4702C24.4541 21.4702 24.8398 21.3828 25.1764 21.2081C25.5131 21.0334 25.7773 20.7905 25.969 20.4794C26.165 20.1683 26.2652 19.804 26.2694 19.3864C26.2652 18.9773 26.1672 18.6193 25.9754 18.3125C25.7879 18.0057 25.5258 17.7692 25.1892 17.603C24.8525 17.4325 24.4626 17.3473 24.0194 17.3473C23.5677 17.3473 23.1714 17.4325 22.8305 17.603C22.4939 17.7692 22.2318 18.0057 22.0443 18.3125C21.8568 18.6193 21.7652 18.9773 21.7694 19.3864C21.7652 19.804 21.8589 20.1683 22.0507 20.4794C22.2425 20.7905 22.5067 21.0334 22.8433 21.2081C23.1842 21.3828 23.5763 21.4702 24.0194 21.4702ZM31.1482 29V15.9091H33.1233V22.1605H33.2831L38.7739 15.9091H41.2604L35.9806 21.8026L41.2796 29H38.9017L34.6702 23.1513L33.1233 24.9283V29H31.1482Z" fill="#4D4D4D"/>
<mask id="mask0_2656_24" style="mask-type:alpha" maskUnits="userSpaceOnUse" x="1" y="3" width="58" height="39">
<path d="M1.87829 24.94C0.771126 23.5017 0.771126 21.4983 1.8783 20.06L13.7991 4.57445C14.5563 3.59078 15.7273 3.01443 16.9687 3.01443H43.0313C44.2727 3.01443 45.4437 3.59078 46.2009 4.57445L58.1217 20.06C59.2289 21.4983 59.2289 23.5017 58.1217 24.94L46.2009 40.4255C45.4437 41.4092 44.2727 41.9856 43.0313 41.9856H16.9687C15.7273 41.9856 14.5563 41.4092 13.7991 40.4255L1.87829 24.94Z" fill="#D9D9D9"/>
</mask>
<g mask="url(#mask0_2656_24)">
<path d="M0 22.5L15 42H45L60 22.5L58.07 20L44.2011 37.4857C43.4423 38.4423 42.2882 39 41.0672 39H18.9328C17.7118 39 16.5577 38.4423 15.7989 37.4857L1.93 20L0 22.5Z" fill="url(#paint0_radial_2656_24)" fill-opacity="0.2"/>
</g>
</g>
<defs>
<radialGradient id="paint0_radial_2656_24" cx="0" cy="0" r="1" gradientUnits="userSpaceOnUse" gradientTransform="translate(30 42) rotate(-90) scale(23.5 34.0304)">
<stop offset="0.225962" stop-color="#4E3A44"/>
<stop offset="1" stop-color="#333333" stop-opacity="0"/>
</radialGradient>
<clipPath id="clip0_2656_24">
<rect width="60" height="45" fill="white"/>
</clipPath>
</defs>
</svg>
