<svg width="60" height="45" viewBox="0 0 60 45" fill="none" xmlns="http://www.w3.org/2000/svg">
<g clip-path="url(#clip0_2656_18)">
<path d="M1.87829 24.94C0.771126 23.5017 0.771126 21.4983 1.8783 20.06L13.7991 4.57445C14.5563 3.59078 15.7273 3.01443 16.9687 3.01443H43.0313C44.2727 3.01443 45.4437 3.59078 46.2009 4.57445L58.1217 20.06C59.2289 21.4983 59.2289 23.5017 58.1217 24.94L46.2009 40.4255C45.4437 41.4092 44.2727 41.9856 43.0313 41.9856H16.9687C15.7273 41.9856 14.5563 41.4092 13.7991 40.4255L1.87829 24.94Z" fill="#85C0F0"/>
<path d="M23.914 15.7301C24.4978 15.7344 25.0731 15.8409 25.6398 16.0497C26.2066 16.2585 26.718 16.5994 27.1739 17.0724C27.6341 17.5455 28.0006 18.1847 28.2733 18.9901C28.5503 19.7912 28.691 20.7884 28.6952 21.9815C28.6952 23.1278 28.5802 24.1484 28.3501 25.0433C28.1199 25.9339 27.7897 26.6861 27.3593 27.2997C26.9332 27.9134 26.4154 28.38 25.806 28.6996C25.1966 29.0192 24.5106 29.179 23.7478 29.179C22.968 29.179 22.2755 29.0256 21.6704 28.7188C21.0653 28.4119 20.5731 27.9879 20.1938 27.4467C19.8145 26.9013 19.578 26.2749 19.4843 25.5675H21.4339C21.5617 26.13 21.8216 26.5859 22.2137 26.9354C22.61 27.2805 23.1214 27.4531 23.7478 27.4531C24.7066 27.4531 25.4545 27.0355 25.9914 26.2003C26.5283 25.3608 26.7989 24.1889 26.8032 22.6847H26.7009C26.4793 23.0511 26.2023 23.3665 25.8699 23.6307C25.5418 23.8949 25.1732 24.0994 24.7641 24.2443C24.355 24.3892 23.9182 24.4616 23.4537 24.4616C22.6995 24.4616 22.0134 24.2763 21.3955 23.9055C20.7776 23.5348 20.2854 23.0256 19.9189 22.3778C19.5525 21.7301 19.3692 20.9908 19.3692 20.1598C19.3692 19.3331 19.5567 18.5831 19.9317 17.9098C20.311 17.2365 20.8394 16.7038 21.517 16.3118C22.1988 15.9155 22.9978 15.7216 23.914 15.7301ZM23.9204 17.392C23.4218 17.392 22.9722 17.5156 22.5716 17.7628C22.1753 18.0057 21.8621 18.3359 21.632 18.7536C21.4019 19.1669 21.2868 19.6271 21.2868 20.1342C21.2868 20.6413 21.3976 21.1016 21.6192 21.5149C21.8451 21.924 22.1519 22.25 22.5397 22.4929C22.9317 22.7315 23.3792 22.8509 23.882 22.8509C24.257 22.8509 24.6064 22.7784 24.9303 22.6335C25.2542 22.4886 25.5376 22.2884 25.7805 22.0327C26.0233 21.7727 26.213 21.4787 26.3493 21.1506C26.4857 20.8224 26.5539 20.4773 26.5539 20.1151C26.5539 19.6335 26.4388 19.1861 26.2087 18.7727C25.9829 18.3594 25.6718 18.027 25.2755 17.7756C24.8792 17.5199 24.4275 17.392 23.9204 17.392ZM31.1833 29V15.9091H33.1585V22.1605H33.3183L38.809 15.9091H41.2955L36.0157 21.8026L41.3147 29H38.9369L34.7053 23.1513L33.1585 24.9283V29H31.1833Z" fill="#4D4D4D"/>
<mask id="mask0_2656_18" style="mask-type:alpha" maskUnits="userSpaceOnUse" x="1" y="3" width="58" height="39">
<path d="M1.87829 24.94C0.771126 23.5017 0.771126 21.4983 1.8783 20.06L13.7991 4.57445C14.5563 3.59078 15.7273 3.01443 16.9687 3.01443H43.0313C44.2727 3.01443 45.4437 3.59078 46.2009 4.57445L58.1217 20.06C59.2289 21.4983 59.2289 23.5017 58.1217 24.94L46.2009 40.4255C45.4437 41.4092 44.2727 41.9856 43.0313 41.9856H16.9687C15.7273 41.9856 14.5563 41.4092 13.7991 40.4255L1.87829 24.94Z" fill="#D9D9D9"/>
</mask>
<g mask="url(#mask0_2656_18)">
<path d="M0 22.5L15 42H45L60 22.5L58.07 20L44.2011 37.4857C43.4423 38.4423 42.2882 39 41.0672 39H18.9328C17.7118 39 16.5577 38.4423 15.7989 37.4857L1.93 20L0 22.5Z" fill="url(#paint0_radial_2656_18)" fill-opacity="0.2"/>
</g>
</g>
<defs>
<radialGradient id="paint0_radial_2656_18" cx="0" cy="0" r="1" gradientUnits="userSpaceOnUse" gradientTransform="translate(30 42) rotate(-90) scale(23.5 34.0304)">
<stop offset="0.225962" stop-color="#4E3A44"/>
<stop offset="1" stop-color="#333333" stop-opacity="0"/>
</radialGradient>
<clipPath id="clip0_2656_18">
<rect width="60" height="45" fill="white"/>
</clipPath>
</defs>
</svg>
