<svg width="60" height="45" viewBox="0 0 60 45" fill="none" xmlns="http://www.w3.org/2000/svg">
<g clip-path="url(#clip0_2277_90)">
<path d="M1.87829 24.94C0.771126 23.5017 0.771126 21.4983 1.8783 20.06L13.7991 4.57445C14.5563 3.59078 15.7273 3.01443 16.9687 3.01443H43.0313C44.2727 3.01443 45.4437 3.59078 46.2009 4.57445L58.1217 20.06C59.2289 21.4983 59.2289 23.5017 58.1217 24.94L46.2009 40.4255C45.4437 41.4092 44.2727 41.9856 43.0313 41.9856H16.9687C15.7273 41.9856 14.5563 41.4092 13.7991 40.4255L1.87829 24.94Z" fill="#434589"/>
<path d="M21.5847 29V15.9091H29.7026V17.6094H23.5598V21.598H29.1209V23.2919H23.5598V29H21.5847ZM32.1316 29V15.9091H34.1067V27.2997H40.0385V29H32.1316Z" fill="#1E1F3D"/>
<mask id="mask0_2277_90" style="mask-type:alpha" maskUnits="userSpaceOnUse" x="1" y="3" width="58" height="39">
<path d="M1.87829 24.94C0.771126 23.5017 0.771126 21.4983 1.8783 20.06L13.7991 4.57445C14.5563 3.59078 15.7273 3.01443 16.9687 3.01443H43.0313C44.2727 3.01443 45.4437 3.59078 46.2009 4.57445L58.1217 20.06C59.2289 21.4983 59.2289 23.5017 58.1217 24.94L46.2009 40.4255C45.4437 41.4092 44.2727 41.9856 43.0313 41.9856H16.9687C15.7273 41.9856 14.5563 41.4092 13.7991 40.4255L1.87829 24.94Z" fill="#D9D9D9"/>
</mask>
<g mask="url(#mask0_2277_90)">
<path d="M0 22.5L15 42H45L60 22.5L58.07 20L44.2011 37.4857C43.4423 38.4423 42.2882 39 41.0672 39H18.9328C17.7118 39 16.5577 38.4423 15.7989 37.4857L1.93 20L0 22.5Z" fill="url(#paint0_radial_2277_90)" fill-opacity="0.2"/>
</g>
</g>
<defs>
<radialGradient id="paint0_radial_2277_90" cx="0" cy="0" r="1" gradientUnits="userSpaceOnUse" gradientTransform="translate(30 42) rotate(-90) scale(23.5 34.0304)">
<stop offset="0.243163"/>
<stop offset="1" stop-opacity="0"/>
</radialGradient>
<clipPath id="clip0_2277_90">
<rect width="60" height="45" fill="white"/>
</clipPath>
</defs>
</svg>
