<svg width="60" height="45" viewBox="0 0 60 45" fill="none" xmlns="http://www.w3.org/2000/svg">
<g clip-path="url(#clip0_2277_42)">
<path d="M1.87829 24.94C0.771126 23.5017 0.771126 21.4983 1.8783 20.06L13.7991 4.57445C14.5563 3.59078 15.7273 3.01443 16.9687 3.01443H43.0313C44.2727 3.01443 45.4437 3.59078 46.2009 4.57445L58.1217 20.06C59.2289 21.4983 59.2289 23.5017 58.1217 24.94L46.2009 40.4255C45.4437 41.4092 44.2727 41.9856 43.0313 41.9856H16.9687C15.7273 41.9856 14.5563 41.4092 13.7991 40.4255L1.87829 24.94Z" fill="#F37D72"/>
<path d="M19.4577 29V15.9091H21.4329V21.598H27.9592V15.9091H29.9407V29H27.9592V23.2919H21.4329V29H19.4577ZM32.8171 29V15.9091H37.4833C38.4975 15.9091 39.3391 16.0838 40.0082 16.4332C40.6815 16.7827 41.1843 17.2663 41.5167 17.8842C41.8491 18.4979 42.0153 19.2074 42.0153 20.0128C42.0153 20.8139 41.8469 21.5192 41.5103 22.1286C41.1779 22.7337 40.6751 23.2045 40.0018 23.5412C39.3327 23.8778 38.4911 24.0462 37.4769 24.0462H33.9421V22.3459H37.2979C37.9371 22.3459 38.457 22.2543 38.8576 22.071C39.2624 21.8878 39.5586 21.6214 39.7461 21.272C39.9336 20.9226 40.0273 20.5028 40.0273 20.0128C40.0273 19.5185 39.9315 19.0902 39.7397 18.728C39.5522 18.3658 39.256 18.0888 38.8512 17.897C38.4506 17.701 37.9244 17.603 37.2724 17.603H34.7923V29H32.8171ZM39.2795 23.0938L42.5139 29H40.2638L37.0934 23.0938H39.2795Z" fill="#540E07"/>
<mask id="mask0_2277_42" style="mask-type:alpha" maskUnits="userSpaceOnUse" x="1" y="3" width="58" height="39">
<path d="M1.87829 24.94C0.771126 23.5017 0.771126 21.4983 1.8783 20.06L13.7991 4.57445C14.5563 3.59078 15.7273 3.01443 16.9687 3.01443H43.0313C44.2727 3.01443 45.4437 3.59078 46.2009 4.57445L58.1217 20.06C59.2289 21.4983 59.2289 23.5017 58.1217 24.94L46.2009 40.4255C45.4437 41.4092 44.2727 41.9856 43.0313 41.9856H16.9687C15.7273 41.9856 14.5563 41.4092 13.7991 40.4255L1.87829 24.94Z" fill="#D9D9D9"/>
</mask>
<g mask="url(#mask0_2277_42)">
<path d="M0 22.5L15 42H45L60 22.5L58.07 20L44.2011 37.4857C43.4423 38.4423 42.2882 39 41.0672 39H18.9328C17.7118 39 16.5577 38.4423 15.7989 37.4857L1.93 20L0 22.5Z" fill="url(#paint0_radial_2277_42)" fill-opacity="0.2"/>
</g>
</g>
<defs>
<radialGradient id="paint0_radial_2277_42" cx="0" cy="0" r="1" gradientUnits="userSpaceOnUse" gradientTransform="translate(30 42) rotate(-90) scale(23.5 34.0304)">
<stop offset="0.243163" stop-color="#333333"/>
<stop offset="1" stop-color="#333333" stop-opacity="0"/>
</radialGradient>
<clipPath id="clip0_2277_42">
<rect width="60" height="45" fill="white"/>
</clipPath>
</defs>
</svg>
