<svg width="60" height="45" viewBox="0 0 60 45" fill="none" xmlns="http://www.w3.org/2000/svg">
<g clip-path="url(#clip0_2533_10)">
<path d="M1.87829 24.94C0.771126 23.5017 0.771126 21.4983 1.8783 20.06L13.7991 4.57445C14.5563 3.59078 15.7273 3.01443 16.9687 3.01443H43.0313C44.2727 3.01443 45.4437 3.59078 46.2009 4.57445L58.1217 20.06C59.2289 21.4983 59.2289 23.5017 58.1217 24.94L46.2009 40.4255C45.4437 41.4092 44.2727 41.9856 43.0313 41.9856H16.9687C15.7273 41.9856 14.5563 41.4092 13.7991 40.4255L1.87829 24.94Z" fill="#BED4F4"/>
<path d="M5.45703 24.4644C4.30873 23.0184 4.29945 20.9743 5.43457 19.5179L15.7989 6.22031C16.5568 5.24787 17.7209 4.67929 18.9538 4.67929H41.0462C42.2791 4.67929 43.4432 5.24787 44.2011 6.22031L54.5654 19.5179C55.7005 20.9743 55.6913 23.0184 54.543 24.4644L44.2011 37.4875C43.4423 38.4431 42.2888 39 41.0686 39H18.9314C17.7112 39 16.5577 38.4431 15.7989 37.4875L5.45703 24.4644Z" fill="url(#paint0_linear_2533_10)"/>
<path d="M17.5603 15.9091H19.9573L24.1249 26.0852H24.2783L28.4459 15.9091H30.843V29H28.9637V19.527H28.8422L24.9814 28.9808H23.4218L19.561 19.5206H19.4395V29H17.5603V15.9091ZM33.7146 29V15.9091H38.3808C39.395 15.9091 40.2366 16.0838 40.9056 16.4332C41.5789 16.7827 42.0818 17.2663 42.4142 17.8842C42.7465 18.4979 42.9127 19.2074 42.9127 20.0128C42.9127 20.8139 42.7444 21.5192 42.4078 22.1286C42.0754 22.7337 41.5725 23.2045 40.8992 23.5412C40.2302 23.8778 39.3886 24.0462 38.3744 24.0462H34.8396V22.3459H38.1954C38.8346 22.3459 39.3545 22.2543 39.7551 22.071C40.1599 21.8878 40.4561 21.6214 40.6436 21.272C40.8311 20.9226 40.9248 20.5028 40.9248 20.0128C40.9248 19.5185 40.8289 19.0902 40.6372 18.728C40.4497 18.3658 40.1535 18.0888 39.7487 17.897C39.3481 17.701 38.8218 17.603 38.1698 17.603H35.6897V29H33.7146ZM40.1769 23.0938L43.4113 29H41.1613L37.9909 23.0938H40.1769Z" fill="#284671"/>
<mask id="mask0_2533_10" style="mask-type:alpha" maskUnits="userSpaceOnUse" x="1" y="3" width="58" height="39">
<path d="M1.87829 24.94C0.771126 23.5017 0.771126 21.4983 1.8783 20.06L13.7991 4.57445C14.5563 3.59078 15.7273 3.01443 16.9687 3.01443H43.0313C44.2727 3.01443 45.4437 3.59078 46.2009 4.57445L58.1217 20.06C59.2289 21.4983 59.2289 23.5017 58.1217 24.94L46.2009 40.4255C45.4437 41.4092 44.2727 41.9856 43.0313 41.9856H16.9687C15.7273 41.9856 14.5563 41.4092 13.7991 40.4255L1.87829 24.94Z" fill="#D9D9D9"/>
</mask>
<g mask="url(#mask0_2533_10)">
<path d="M0 22.5L15 42H45L60 22.5L58.07 20L44.2011 37.4857C43.4423 38.4423 42.2882 39 41.0672 39H18.9328C17.7118 39 16.5577 38.4423 15.7989 37.4857L1.93 20L0 22.5Z" fill="url(#paint1_radial_2533_10)" fill-opacity="0.2"/>
</g>
</g>
<defs>
<linearGradient id="paint0_linear_2533_10" x1="30" y1="22" x2="30" y2="42" gradientUnits="userSpaceOnUse">
<stop stop-color="#BED4F4"/>
<stop offset="1" stop-color="#A8C5F0"/>
</linearGradient>
<radialGradient id="paint1_radial_2533_10" cx="0" cy="0" r="1" gradientUnits="userSpaceOnUse" gradientTransform="translate(30 42) rotate(-90) scale(23.5 34.0304)">
<stop offset="0.243163" stop-color="#333333"/>
<stop offset="1" stop-color="#333333" stop-opacity="0"/>
</radialGradient>
<clipPath id="clip0_2533_10">
<rect width="60" height="45" fill="white"/>
</clipPath>
</defs>
</svg>
