<svg width="60" height="45" viewBox="0 0 60 45" fill="none" xmlns="http://www.w3.org/2000/svg">
<g clip-path="url(#clip0_2277_52)">
<path d="M1.87829 24.94C0.771126 23.5017 0.771126 21.4983 1.8783 20.06L13.7991 4.57445C14.5563 3.59078 15.7273 3.01443 16.9687 3.01443H43.0313C44.2727 3.01443 45.4437 3.59078 46.2009 4.57445L58.1217 20.06C59.2289 21.4983 59.2289 23.5017 58.1217 24.94L46.2009 40.4255C45.4437 41.4092 44.2727 41.9856 43.0313 41.9856H16.9687C15.7273 41.9856 14.5563 41.4092 13.7991 40.4255L1.87829 24.94Z" fill="#8672F3"/>
<path d="M29.1625 15.9091V29H27.3471L20.693 19.3991H20.5716V29H18.5964V15.9091H20.4245L27.0851 25.5227H27.2065V15.9091H29.1625ZM42.9165 20.1662H40.9222C40.8455 19.7401 40.7028 19.3651 40.494 19.0412C40.2852 18.7173 40.0295 18.4425 39.7269 18.2166C39.4244 17.9908 39.0856 17.8203 38.7106 17.7053C38.3398 17.5902 37.9457 17.5327 37.5281 17.5327C36.7738 17.5327 36.0984 17.7223 35.5018 18.1016C34.9094 18.4808 34.4407 19.0369 34.0955 19.7699C33.7546 20.5028 33.5842 21.3977 33.5842 22.4545C33.5842 23.5199 33.7546 24.419 34.0955 25.152C34.4407 25.8849 34.9116 26.4389 35.5082 26.8139C36.1048 27.1889 36.7759 27.3764 37.5217 27.3764C37.935 27.3764 38.3271 27.321 38.6978 27.2102C39.0728 27.0952 39.4116 26.9268 39.7141 26.7053C40.0167 26.4837 40.2724 26.2131 40.4812 25.8935C40.6942 25.5696 40.8413 25.1989 40.9222 24.7812L42.9165 24.7876C42.81 25.4311 42.6033 26.0234 42.2965 26.5646C41.994 27.1016 41.604 27.5661 41.1268 27.9581C40.6538 28.3459 40.1126 28.6463 39.5032 28.8594C38.8938 29.0724 38.229 29.179 37.5089 29.179C36.3754 29.179 35.3654 28.9105 34.479 28.3736C33.5927 27.8324 32.8938 27.0589 32.3825 26.0533C31.8754 25.0476 31.6218 23.848 31.6218 22.4545C31.6218 21.0568 31.8775 19.8572 32.3888 18.8558C32.9002 17.8501 33.5991 17.0788 34.4854 16.5419C35.3718 16.0007 36.3796 15.7301 37.5089 15.7301C38.2035 15.7301 38.8512 15.8303 39.4521 16.0305C40.0572 16.2266 40.6005 16.5163 41.082 16.8999C41.5636 17.2791 41.962 17.7436 42.2773 18.2933C42.5927 18.8388 42.8058 19.4631 42.9165 20.1662Z" fill="#130754"/>
<mask id="mask0_2277_52" style="mask-type:alpha" maskUnits="userSpaceOnUse" x="1" y="3" width="58" height="39">
<path d="M1.87829 24.94C0.771126 23.5017 0.771126 21.4983 1.8783 20.06L13.7991 4.57445C14.5563 3.59078 15.7273 3.01443 16.9687 3.01443H43.0313C44.2727 3.01443 45.4437 3.59078 46.2009 4.57445L58.1217 20.06C59.2289 21.4983 59.2289 23.5017 58.1217 24.94L46.2009 40.4255C45.4437 41.4092 44.2727 41.9856 43.0313 41.9856H16.9687C15.7273 41.9856 14.5563 41.4092 13.7991 40.4255L1.87829 24.94Z" fill="#D9D9D9"/>
</mask>
<g mask="url(#mask0_2277_52)">
<path d="M0 22.5L15 42H45L60 22.5L58.07 20L44.2011 37.4857C43.4423 38.4423 42.2882 39 41.0672 39H18.9328C17.7118 39 16.5577 38.4423 15.7989 37.4857L1.93 20L0 22.5Z" fill="url(#paint0_radial_2277_52)" fill-opacity="0.2"/>
</g>
</g>
<defs>
<radialGradient id="paint0_radial_2277_52" cx="0" cy="0" r="1" gradientUnits="userSpaceOnUse" gradientTransform="translate(30 42) rotate(-90) scale(23.5 34.0304)">
<stop offset="0.243163" stop-color="#333333"/>
<stop offset="1" stop-color="#333333" stop-opacity="0"/>
</radialGradient>
<clipPath id="clip0_2277_52">
<rect width="60" height="45" fill="white"/>
</clipPath>
</defs>
</svg>
