<svg width="60" height="45" viewBox="0 0 60 45" fill="none" xmlns="http://www.w3.org/2000/svg">
<g clip-path="url(#clip0_2618_46)">
<path d="M1.87829 24.94C0.771126 23.5017 0.771126 21.4983 1.8783 20.06L13.7991 4.57445C14.5563 3.59078 15.7273 3.01443 16.9687 3.01443H43.0313C44.2727 3.01443 45.4437 3.59078 46.2009 4.57445L58.1217 20.06C59.2289 21.4983 59.2289 23.5017 58.1217 24.94L46.2009 40.4255C45.4437 41.4092 44.2727 41.9856 43.0313 41.9856H16.9687C15.7273 41.9856 14.5563 41.4092 13.7991 40.4255L1.87829 24.94Z" fill="#11A8E8"/>
<path d="M19.6433 29V15.9091H24.3095C25.3237 15.9091 26.1653 16.0838 26.8343 16.4332C27.5076 16.7827 28.0105 17.2663 28.3429 17.8842C28.6752 18.4979 28.8414 19.2074 28.8414 20.0128C28.8414 20.8139 28.6731 21.5192 28.3365 22.1286C28.0041 22.7337 27.5012 23.2045 26.8279 23.5412C26.1589 23.8778 25.3173 24.0462 24.3031 24.0462H20.7683V22.3459H24.1241C24.7633 22.3459 25.2832 22.2543 25.6838 22.071C26.0886 21.8878 26.3848 21.6214 26.5723 21.272C26.7598 20.9226 26.8535 20.5028 26.8535 20.0128C26.8535 19.5185 26.7576 19.0902 26.5659 18.728C26.3784 18.3658 26.0822 18.0888 25.6774 17.897C25.2768 17.701 24.7505 17.603 24.0985 17.603H21.6184V29H19.6433ZM26.1056 23.0938L29.34 29H27.09L23.9196 23.0938H26.1056ZM32.6191 15.9091L35.7512 21.0291H35.8535L38.9856 15.9091H41.274L37.1958 22.4545L41.2995 29H38.9984L35.8535 23.9503H35.7512L32.6064 29H30.3052L34.4792 22.4545L30.3308 15.9091H32.6191Z" fill="#A8E5FF"/>
<mask id="mask0_2618_46" style="mask-type:alpha" maskUnits="userSpaceOnUse" x="1" y="3" width="58" height="39">
<path d="M1.87829 24.94C0.771126 23.5017 0.771126 21.4983 1.8783 20.06L13.7991 4.57445C14.5563 3.59078 15.7273 3.01443 16.9687 3.01443H43.0313C44.2727 3.01443 45.4437 3.59078 46.2009 4.57445L58.1217 20.06C59.2289 21.4983 59.2289 23.5017 58.1217 24.94L46.2009 40.4255C45.4437 41.4092 44.2727 41.9856 43.0313 41.9856H16.9687C15.7273 41.9856 14.5563 41.4092 13.7991 40.4255L1.87829 24.94Z" fill="#D9D9D9"/>
</mask>
<g mask="url(#mask0_2618_46)">
<path d="M0 22.5L15 42H45L60 22.5L58.07 20L44.2011 37.4857C43.4423 38.4423 42.2882 39 41.0672 39H18.9328C17.7118 39 16.5577 38.4423 15.7989 37.4857L1.93 20L0 22.5Z" fill="url(#paint0_radial_2618_46)" fill-opacity="0.2"/>
</g>
</g>
<defs>
<radialGradient id="paint0_radial_2618_46" cx="0" cy="0" r="1" gradientUnits="userSpaceOnUse" gradientTransform="translate(30 42) rotate(-90) scale(23.5 34.0304)">
<stop offset="0.243163" stop-color="#333333"/>
<stop offset="1" stop-color="#333333" stop-opacity="0"/>
</radialGradient>
<clipPath id="clip0_2618_46">
<rect width="60" height="45" fill="white"/>
</clipPath>
</defs>
</svg>
