<svg width="60" height="45" viewBox="0 0 60 45" fill="none" xmlns="http://www.w3.org/2000/svg">
<g clip-path="url(#clip0_2618_31)">
<path d="M1.87829 24.94C0.771126 23.5017 0.771126 21.4983 1.8783 20.06L13.7991 4.57445C14.5563 3.59078 15.7273 3.01443 16.9687 3.01443H43.0313C44.2727 3.01443 45.4437 3.59078 46.2009 4.57445L58.1217 20.06C59.2289 21.4983 59.2289 23.5017 58.1217 24.94L46.2009 40.4255C45.4437 41.4092 44.2727 41.9856 43.0313 41.9856H16.9687C15.7273 41.9856 14.5563 41.4092 13.7991 40.4255L1.87829 24.94Z" fill="#DE5798"/>
<path d="M25.8691 19.348C25.801 18.7429 25.5197 18.2741 25.0254 17.9418C24.5311 17.6051 23.9089 17.4368 23.1589 17.4368C22.622 17.4368 22.1575 17.522 21.7654 17.6925C21.3734 17.8587 21.0687 18.0888 20.8514 18.3828C20.6383 18.6726 20.5318 19.0028 20.5318 19.3736C20.5318 19.6847 20.6042 19.9531 20.7491 20.179C20.8983 20.4048 21.0922 20.5945 21.3308 20.7479C21.5737 20.897 21.8336 21.0227 22.1106 21.125C22.3876 21.223 22.6539 21.304 22.9096 21.3679L24.188 21.7003C24.6056 21.8026 25.0339 21.9411 25.4728 22.1158C25.9118 22.2905 26.3187 22.5206 26.6937 22.8061C27.0687 23.0916 27.3713 23.4453 27.6014 23.8672C27.8358 24.2891 27.9529 24.794 27.9529 25.3821C27.9529 26.1236 27.7612 26.782 27.3777 27.3572C26.9984 27.9325 26.4466 28.3864 25.7221 28.7188C25.002 29.0511 24.1305 29.2173 23.1078 29.2173C22.1277 29.2173 21.2797 29.0618 20.5637 28.7507C19.8478 28.4396 19.2875 27.9986 18.8826 27.4276C18.4778 26.8523 18.2541 26.1705 18.2115 25.3821H20.193C20.2314 25.8551 20.3848 26.2493 20.6532 26.5646C20.926 26.8757 21.2733 27.108 21.6951 27.2614C22.1213 27.4105 22.5879 27.4851 23.095 27.4851C23.6532 27.4851 24.1497 27.3977 24.5843 27.223C25.0233 27.044 25.3684 26.7969 25.6199 26.4815C25.8713 26.1619 25.997 25.7891 25.997 25.3629C25.997 24.9751 25.8862 24.6577 25.6646 24.4105C25.4473 24.1634 25.1511 23.9588 24.7761 23.7969C24.4054 23.6349 23.9856 23.4922 23.5169 23.3686L21.97 22.9467C20.9217 22.6612 20.0907 22.2415 19.4771 21.6875C18.8677 21.1335 18.563 20.4006 18.563 19.4886C18.563 18.7344 18.7676 18.076 19.1767 17.5135C19.5858 16.951 20.1397 16.5142 20.8386 16.2031C21.5375 15.8878 22.3258 15.7301 23.2037 15.7301C24.09 15.7301 24.872 15.8857 25.5495 16.1967C26.2314 16.5078 26.7683 16.9361 27.1603 17.4815C27.5524 18.0227 27.7569 18.6449 27.774 19.348H25.8691ZM41.6847 22.4545C41.6847 23.8523 41.429 25.054 40.9176 26.0597C40.4063 27.0611 39.7053 27.8324 38.8146 28.3736C37.9283 28.9105 36.9205 29.179 35.7912 29.179C34.6577 29.179 33.6456 28.9105 32.755 28.3736C31.8686 27.8324 31.1697 27.0589 30.6584 26.0533C30.147 25.0476 29.8913 23.848 29.8913 22.4545C29.8913 21.0568 30.147 19.8572 30.6584 18.8558C31.1697 17.8501 31.8686 17.0788 32.755 16.5419C33.6456 16.0007 34.6577 15.7301 35.7912 15.7301C36.9205 15.7301 37.9283 16.0007 38.8146 16.5419C39.7053 17.0788 40.4063 17.8501 40.9176 18.8558C41.429 19.8572 41.6847 21.0568 41.6847 22.4545ZM39.7287 22.4545C39.7287 21.3892 39.5561 20.4922 39.2109 19.7635C38.87 19.0305 38.4013 18.4766 37.8047 18.1016C37.2124 17.7223 36.5412 17.5327 35.7912 17.5327C35.0369 17.5327 34.3636 17.7223 33.7713 18.1016C33.179 18.4766 32.7102 19.0305 32.3651 19.7635C32.0241 20.4922 31.8537 21.3892 31.8537 22.4545C31.8537 23.5199 32.0241 24.419 32.3651 25.152C32.7102 25.8807 33.179 26.4347 33.7713 26.8139C34.3636 27.1889 35.0369 27.3764 35.7912 27.3764C36.5412 27.3764 37.2124 27.1889 37.8047 26.8139C38.4013 26.4347 38.87 25.8807 39.2109 25.152C39.5561 24.419 39.7287 23.5199 39.7287 22.4545Z" fill="#271920"/>
<mask id="mask0_2618_31" style="mask-type:alpha" maskUnits="userSpaceOnUse" x="1" y="3" width="58" height="39">
<path d="M1.87829 24.94C0.771126 23.5017 0.771126 21.4983 1.8783 20.06L13.7991 4.57445C14.5563 3.59078 15.7273 3.01443 16.9687 3.01443H43.0313C44.2727 3.01443 45.4437 3.59078 46.2009 4.57445L58.1217 20.06C59.2289 21.4983 59.2289 23.5017 58.1217 24.94L46.2009 40.4255C45.4437 41.4092 44.2727 41.9856 43.0313 41.9856H16.9687C15.7273 41.9856 14.5563 41.4092 13.7991 40.4255L1.87829 24.94Z" fill="#D9D9D9"/>
</mask>
<g mask="url(#mask0_2618_31)">
<path d="M0 22.5L15 42H45L60 22.5L58.07 20L44.2011 37.4857C43.4423 38.4423 42.2882 39 41.0672 39H18.9328C17.7118 39 16.5577 38.4423 15.7989 37.4857L1.93 20L0 22.5Z" fill="url(#paint0_radial_2618_31)" fill-opacity="0.2"/>
</g>
</g>
<defs>
<radialGradient id="paint0_radial_2618_31" cx="0" cy="0" r="1" gradientUnits="userSpaceOnUse" gradientTransform="translate(30 42) rotate(-90) scale(23.5 34.0304)">
<stop offset="0.225962" stop-color="#4E3A44"/>
<stop offset="1" stop-color="#333333" stop-opacity="0"/>
</radialGradient>
<clipPath id="clip0_2618_31">
<rect width="60" height="45" fill="white"/>
</clipPath>
</defs>
</svg>
