<svg
  width="40"
  height="40"
  viewBox="0 0 40 40"
  xmlns="http://www.w3.org/2000/svg"
>
  <path
    d="M8.9496 4.7905A18.8 18.8 0 0 1 31.0504 4.7905L29.1694 7.3793A15.6 15.6 0 0 0 10.8306 7.3793ZM35.2095 8.9496A18.8 18.8 0 0 1 35.2095 31.0504L32.6207 29.1694A15.6 15.6 0 0 0 32.6207 10.8306ZM31.0504 35.2095A18.8 18.8 0 0 1 8.9496 35.2095L10.8306 32.6207A15.6 15.6 0 0 0 29.1694 32.6207ZM4.7905 31.0504A18.8 18.8 0 0 1 4.7905 8.9496L7.3793 10.8306A15.6 15.6 0 0 0 7.3793 29.1694Z"
  />
  <path
    fill-rule="evenodd"
    clip-rule="evenodd"
    d="M20 7.2a12.8 12.8 0 1 1 0 25.6 12.8 12.8 0 1 1 0-25.6Zm0 3.2a9.6 9.6 0 1 0 0 19.2 9.6 9.6 0 1 0 0-19.2Z"
  />
</svg>
