<svg width="40" height="40" viewBox="0 0 40 40" fill="none" xmlns="http://www.w3.org/2000/svg">
<path fill-rule="evenodd" clip-rule="evenodd" d="M20 1.90476C16.4791 1.90476 13.1957 2.9094 10.4176 4.64723C9.97167 4.92617 9.38405 4.7908 9.10511 4.34488C8.82616 3.89895 8.96153 3.31133 9.40746 3.03238C12.4796 1.11063 16.1116 0 20 0C23.8884 0 27.5204 1.11063 30.5925 3.03238C31.0385 3.31133 31.1738 3.89895 30.8949 4.34488C30.6159 4.7908 30.0283 4.92617 29.5824 4.64723C26.8043 2.9094 23.5209 1.90476 20 1.90476ZM4.34488 9.10511C4.7908 9.38405 4.92617 9.97167 4.64723 10.4176C2.9094 13.1957 1.90476 16.4791 1.90476 20C1.90476 23.5209 2.9094 26.8043 4.64723 29.5824C4.92617 30.0283 4.7908 30.6159 4.34488 30.8949C3.89895 31.1738 3.31133 31.0385 3.03238 30.5925C1.11063 27.5204 0 23.8884 0 20C0 16.1116 1.11063 12.4796 3.03238 9.40746C3.31133 8.96153 3.89895 8.82616 4.34488 9.10511ZM35.6551 9.10511C36.101 8.82616 36.6887 8.96153 36.9676 9.40746C38.8894 12.4796 40 16.1116 40 20C40 23.8884 38.8894 27.5204 36.9676 30.5925C36.6887 31.0385 36.101 31.1738 35.6551 30.8949C35.2092 30.6159 35.0738 30.0283 35.3528 29.5824C37.0906 26.8043 38.0952 23.5209 38.0952 20C38.0952 16.4791 37.0906 13.1957 35.3528 10.4176C35.0738 9.97167 35.2092 9.38405 35.6551 9.10511ZM9.10511 35.6551C9.38405 35.2092 9.97167 35.0738 10.4176 35.3528C13.1957 37.0906 16.4791 38.0952 20 38.0952C23.5209 38.0952 26.8043 37.0906 29.5824 35.3528C30.0283 35.0738 30.6159 35.2092 30.8949 35.6551C31.1738 36.101 31.0385 36.6887 30.5925 36.9676C27.5204 38.8894 23.8884 40 20 40C16.1116 40 12.4796 38.8894 9.40746 36.9676C8.96153 36.6887 8.82616 36.101 9.10511 35.6551Z" fill="#101010"/>
<path fill-rule="evenodd" clip-rule="evenodd" d="M20 31C26.0751 31 31 26.0751 31 20C31 13.9249 26.0751 9 20 9C13.9249 9 9 13.9249 9 20C9 26.0751 13.9249 31 20 31ZM20 33C27.1797 33 33 27.1797 33 20C33 12.8203 27.1797 7 20 7C12.8203 7 7 12.8203 7 20C7 27.1797 12.8203 33 20 33Z" fill="#101010"/>
</svg>
