<svg
  width="40"
  height="40"
  viewBox="0 0 40 40"
  fill="none"
  xmlns="http://www.w3.org/2000/svg"
>
  <path
    fill-rule="evenodd"
    clip-rule="evenodd"
    d="M20 1.2a18.8 18.8 0 1 1 0 37.6 18.8 18.8 0 1 1 0-37.6Zm0 3.2a15.6 15.6 0 1 0 0 31.2 15.6 15.6 0 1 0 0-31.2Z"
    fill="#101010"
  />
  <path
    d="M9.7239 27L16.2296 14.1307V14.017H8.72958V12.4545H18.0478V14.1023L11.5705 27H9.7239ZM20.9508 27V12.4545H22.7122V19.6705H22.8826L29.4167 12.4545H31.7179L25.6099 19.017L31.7179 27H29.5872L24.5304 20.2386L22.7122 22.2841V27H20.9508Z"
    fill="black"
  />
</svg>
