<!--
  Derived from the mode-mania glyph in ppy/osu-web's FontAwesomeExtra font.
  Source: https://github.com/ppy/osu-web/blob/26e09bbabab8f63bfa45127ceeba199d65746291/resources/fonts/extra/extra.svg
  Copyright (c) ppy Pty Ltd and osu-web contributors.
  Licensed under AGPL-3.0-or-later:
  https://github.com/ppy/osu-web/blob/26e09bbabab8f63bfa45127ceeba199d65746291/LICENCE
-->
<svg
  width="40"
  height="40"
  viewBox="0 0 1000 1000"
  xmlns="http://www.w3.org/2000/svg"
>
  <g transform="translate(0 850) scale(1 -1)">
    <path
      d="M500 48q-21 0-35 15t-15 35v504q0 21 15 36t35 14 36-14 14-36v-504q0-21-14-35t-36-15z m-110 192v220q0 21-14 36t-36 14-35-14-15-36v-220q0-21 15-35t35-15 36 15 14 35z m320 0v220q0 21-14 36t-36 14-35-14-15-36v-220q0-21 15-35t35-15 36 15 14 35z m-210 500q-106 0-197-53-88-52-140-140-53-91-53-197t53-197q52-88 140-140 91-53 197-53t197 53q88 52 140 140 53 91 53 197t-53 197q-52 88-140 140-91 53-197 53z m0 80q97 0 182-36t150-102q64-62 101-148t37-184-36-182-102-150q-62-64-148-101t-184-37-182 36-150 102q-64 62-101 149t-37 183 37 182 101 150q62 64 149 101t183 37v0z"
    />
  </g>
</svg>
