<svg
  width="40"
  height="40"
  viewBox="0 0 40 40"
  fill="none"
  xmlns="http://www.w3.org/2000/svg"
>
  <path
    fill-rule="evenodd"
    clip-rule="evenodd"
    d="M20 1.2a18.8 18.8 0 1 1 0 37.6 18.8 18.8 0 1 1 0-37.6Zm0 3.2a15.6 15.6 0 1 0 0 31.2 15.6 15.6 0 1 0 0-31.2Z"
    fill="#101010"
  />
  <path
    d="M8.22532 24.017V22.5682L14.6174 12.4545H15.6685V14.6989H14.9583L10.1287 22.3409V22.4545H18.7367V24.017H8.22532ZM15.0719 27V23.5767V22.902V12.4545H16.748V27H15.0719ZM21.6539 27V12.4545H23.4153V19.6705H23.5858L30.1199 12.4545H32.421L26.313 19.017L32.421 27H30.2903L25.2335 20.2386L23.4153 22.2841V27H21.6539Z"
    fill="black"
  />
</svg>
