<!--
  Derived from the mode-taiko glyph in ppy/osu-web's FontAwesomeExtra font.
  Source: https://github.com/ppy/osu-web/blob/26e09bbabab8f63bfa45127ceeba199d65746291/resources/fonts/extra/extra.svg
  Copyright (c) ppy Pty Ltd and osu-web contributors.
  Licensed under AGPL-3.0-or-later:
  https://github.com/ppy/osu-web/blob/26e09bbabab8f63bfa45127ceeba199d65746291/LICENCE
-->
<svg
  width="40"
  height="40"
  viewBox="0 0 1000 1000"
  xmlns="http://www.w3.org/2000/svg"
>
  <g transform="translate(0 850) scale(1 -1)">
    <path
      d="M500 650q-82 0-152-41-67-40-107-107-41-70-41-152t41-152q40-67 107-107 70-41 152-41t152 41q67 40 107 107 41 70 41 152t-41 152q-40 67-107 107-70 41-152 41z m-200-300q0 69 43 123t107 71v-388q-65 17-107 71t-43 123z m250-194v388q65-17 108-71t42-123-42-123-108-71z m-50 584q106 0 197-53 88-52 140-140 53-91 53-197t-53-197q-52-88-140-140-91-53-197-53t-197 53q-88 52-140 140-53 91-53 197t53 197q52 88 140 140 91 53 197 53z m0 80q-97 0-182-36t-150-102q-64-62-101-148t-37-184 37-182 101-150q62-64 149-101t183-37 182 36 150 102q64 62 101 149t37 183-36 182-102 150q-62 64-148 101t-184 37v0z"
    />
  </g>
</svg>
