<svg width="743" height="352" viewBox="0 0 743 352" fill="none" xmlns="http://www.w3.org/2000/svg">
<path d="M361.519 284.135C449.89 247.964 494.076 229.879 532.027 245.496C534.868 246.665 537.654 247.964 540.375 249.389C576.729 268.431 591.267 313.907 620.345 404.86C621.254 407.705 621.709 409.128 621.105 410.25C621.06 410.333 621.011 410.415 620.958 410.494C620.25 411.554 618.826 411.811 615.977 412.325C501.593 432.973 229.597 462.392 175.352 367.068C173.958 364.617 173.261 363.392 173.704 362.109C174.147 360.826 175.526 360.261 178.284 359.132L361.519 284.135Z" fill="#4C94FF"/>
<path d="M668.065 356.336C638.601 264.173 623.868 218.092 627.836 171.181C631.803 124.271 654.065 81.318 698.588 -4.58736L712.974 -32.3451C714.433 -35.1601 715.163 -36.5675 716.499 -36.8858C717.835 -37.2041 719.1 -36.2921 721.628 -34.468C763.505 -4.25489 796.386 39.0818 813.282 91.929C851.342 210.98 794.998 337.201 685.917 390.197C683.117 391.558 681.717 392.238 680.457 391.699C679.198 391.159 678.717 389.655 677.755 386.646L668.065 356.336Z" fill="#4C94FF"/>
<path d="M354.304 -15.4999C383.579 -71.9834 434.43 -49.7857 500.01 -70.4344C552.931 -87.097 607.298 -85.2143 656.128 -68.4158C659.076 -67.4016 660.55 -66.8945 661.06 -65.6191C661.57 -64.3437 660.841 -62.9363 659.382 -60.1213L601.572 51.4189C571.601 109.248 519.826 152.754 457.698 172.315C375.168 198.3 286.646 198.3 204.115 172.315C141.988 152.753 90.2135 109.248 60.2419 51.4191L2.43232 -60.1213C0.97336 -62.9363 0.243893 -64.3438 0.754239 -65.6191C1.2646 -66.8945 2.7386 -67.4016 5.68662 -68.4158C54.516 -85.2143 108.883 -87.097 161.804 -70.4344C227.385 -49.7857 280.795 -148.887 354.304 -15.4999Z" fill="#4C94FF"/>
</svg>
