<svg width="393" height="352" viewBox="0 0 393 352" fill="none" xmlns="http://www.w3.org/2000/svg">
<path d="M-66.5689 264.226C22.9989 236.025 67.7828 221.925 104.444 240.925C141.105 259.926 155.403 304.648 183.997 394.091L187.382 404.679C188.352 407.711 188.837 409.227 188.114 410.401C187.392 411.574 185.843 411.821 182.746 412.314C74.8618 429.481 -32.567 373.802 -80.7371 275.755C-82.12 272.94 -82.8114 271.533 -82.269 270.266C-81.7266 268.999 -80.2083 268.521 -77.1716 267.565L-66.5689 264.226Z" fill="#4C94FF"/>
<path d="M-78.5997 51.8874C-49.3252 -4.59616 1.52534 -49.7857 67.1063 -70.4344C120.027 -87.097 174.394 -85.2143 223.223 -68.4158C226.171 -67.4016 227.645 -66.8945 228.156 -65.6191C228.666 -64.3438 227.936 -62.9363 226.478 -60.1213L217.445 -42.6926C170.28 48.3087 146.698 93.8094 108.517 125.893C70.3359 157.976 21.4528 173.367 -76.3132 204.149L-95.5717 210.213C-98.5841 211.162 -100.09 211.636 -101.257 210.918C-102.424 210.2 -102.675 208.667 -103.177 205.602C-111.998 151.752 -102.55 98.0986 -78.5997 51.8874Z" fill="#4C94FF"/>
<path d="M245.825 389.694C242.732 380.019 241.185 375.181 239.826 370.652C201.102 241.649 212.849 102.751 272.687 -17.9164C274.788 -22.1535 277.044 -26.5067 281.556 -35.213C281.614 -35.3241 281.643 -35.3796 281.671 -35.4299C282.515 -36.9149 284.473 -37.3945 285.908 -36.4677C285.956 -36.4363 286.001 -36.4046 286.092 -36.3411C329.222 -6.05832 363.13 37.9796 380.377 91.9289C418.773 212.029 361.093 339.427 250.116 391.581C250.004 391.634 249.948 391.66 249.892 391.684C248.327 392.343 246.491 391.543 245.909 389.948C245.888 389.891 245.867 389.825 245.825 389.694Z" fill="#4C94FF"/>
</svg>
