<svg width="965" height="352" viewBox="0 0 965 352" fill="none" xmlns="http://www.w3.org/2000/svg">
<path d="M406.095 62.6299C326.855 82.184 287.235 91.961 256.503 78.863C241.718 72.5617 228.669 62.7897 218.463 50.3748C197.248 24.5691 195.484 -16.2015 191.955 -97.7425C191.856 -100.03 191.806 -101.174 192.317 -101.973C192.566 -102.362 192.891 -102.68 193.285 -102.92C194.095 -103.413 195.188 -103.341 197.374 -103.197C315.756 -95.4083 675.913 -121.578 705.291 -16.9501C705.968 -14.5386 706.306 -13.3329 705.667 -12.235C705.027 -11.1371 703.723 -10.8153 701.116 -10.1719L406.095 62.6299Z" fill="#4C94FF"/>
<path d="M133.183 -62.749C137.366 33.9182 139.458 82.2518 123.291 126.467C107.124 170.682 74.3477 206.266 8.79534 277.435L-12.3859 300.431C-14.5339 302.763 -15.6079 303.929 -16.9809 303.884C-18.3539 303.84 -19.3336 302.627 -21.293 300.202C-53.7477 260.038 -74.072 209.578 -76.4709 154.148C-81.8752 29.2777 5.68691 -77.6776 124.866 -100.114C127.926 -100.69 129.455 -100.978 130.529 -100.126C131.602 -99.2747 131.67 -97.6968 131.807 -94.5412L133.183 -62.749Z" fill="#4C94FF"/>
<path d="M338.084 378.525C294.983 425.319 251.762 390.527 183.059 393.198C126.734 395.387 57.4908 400.224 13.5427 371.435C12.8867 371.005 12.5587 370.79 12.3086 370.52C11.4646 369.608 11.2789 368.166 11.8642 367.07C12.0375 366.745 12.3189 366.433 12.8817 365.81L87.7768 282.892C150.626 213.311 238.887 172.026 332.58 168.384C389.849 166.157 446.42 181.581 494.634 212.567L542.572 243.376C555.096 251.425 561.357 255.449 567.697 259.299C601.626 279.904 637.571 296.99 674.972 310.291C681.96 312.776 689.034 315.091 703.183 319.72L946.956 399.487C958.431 403.242 964.169 405.12 964.035 407.426C963.901 409.733 957.974 410.936 946.12 413.342C844.3 434.01 552.67 509.998 509.355 482.161C451.516 444.989 373.918 526.551 338.084 378.525Z" fill="#4C94FF"/>
</svg>
