<svg width="221" height="101" viewBox="0 0 221 101" fill="none" xmlns="http://www.w3.org/2000/svg">
<path d="M10.7301 81.6308C27.9231 64.4378 27.9231 36.5625 10.7301 19.3695C-3.5767 37.5995 -3.5767 63.4007 10.7301 81.6308Z" fill="#4D94FF"/>
<path d="M50.5 0.00012207C63.4335 0.00012262 76.347 4.9293 86.2089 14.7912C94.5147 23.0971 99.3217 33.5674 100.632 44.3913H83.5317C64.002 44.3913 45.2723 36.6331 31.4627 22.8236L19.3691 10.7299C28.4827 3.57599 39.4841 0.00012207 50.5 0.00012207Z" fill="#4D94FF"/>
<path d="M31.4627 78.1767C45.2722 64.3671 64.002 56.609 83.5317 56.609H100.632C99.3216 67.4329 94.5147 77.9032 86.2089 86.209C67.9495 104.468 39.1862 105.822 19.3693 90.27L31.4627 78.1767Z" fill="#4D94FF"/>
<path d="M10.7301 81.6308C27.9231 64.4378 27.9231 36.5625 10.7301 19.3695C-3.5767 37.5995 -3.5767 63.4007 10.7301 81.6308Z" fill="#4D94FF"/>
<path d="M10.7301 81.6308C27.9231 64.4378 27.9231 36.5625 10.7301 19.3695C-3.5767 37.5995 -3.5767 63.4007 10.7301 81.6308Z" fill="#4D94FF"/>
<path d="M119.34 8.15758C119.34 6.07482 119.34 5.03344 119.987 4.38641C120.634 3.73938 121.675 3.73938 123.758 3.73938H136.276C138.359 3.73938 139.4 3.73938 140.047 4.38641C140.694 5.03344 140.694 6.07482 140.694 8.15758V25.094C140.694 27.1768 140.694 28.2181 141.342 28.8652C141.989 29.5122 143.03 29.5122 145.113 29.5122H157.631C159.714 29.5122 160.755 29.5122 161.402 30.1592C162.049 30.8063 162.049 31.8476 162.049 33.9304V42.0304C162.049 44.1132 162.049 45.1546 161.402 45.8016C160.755 46.4486 159.714 46.4486 157.631 46.4486H145.113C143.03 46.4486 141.989 46.4486 141.342 47.0957C140.694 47.7427 140.694 48.7841 140.694 50.8668V89.8942C140.694 91.977 140.694 93.0184 140.047 93.6654C139.4 94.3124 138.359 94.3124 136.276 94.3124H123.758C121.675 94.3124 120.634 94.3124 119.987 93.6654C119.34 93.0184 119.34 91.977 119.34 89.8942V8.15758Z" fill="#101010"/>
<path d="M177.511 33.932C177.511 31.8492 177.511 30.8079 178.158 30.1608C178.805 29.5138 179.846 29.5138 181.929 29.5138H198.865H215.802C217.885 29.5138 218.926 29.5138 219.573 30.1608C220.22 30.8079 220.22 31.8492 220.22 33.932V42.032C220.22 44.1148 220.22 45.1562 219.573 45.8032C218.926 46.4502 217.885 46.4502 215.802 46.4502H203.284C201.201 46.4502 200.159 46.4502 199.512 47.0972C198.865 47.7443 198.865 48.7857 198.865 50.8684V89.8958C198.865 91.9786 198.865 93.02 198.218 93.667C197.571 94.314 196.53 94.314 194.447 94.314H181.929C179.846 94.314 178.805 94.314 178.158 93.667C177.511 93.02 177.511 91.9786 177.511 89.8958V33.932Z" fill="#101010"/>
</svg>
