<svg width="228" height="229" viewBox="0 0 228 229" fill="none" xmlns="http://www.w3.org/2000/svg">
<g opacity="0.15">
<path d="M24.311 185.174C63.2649 146.362 63.2649 83.4352 24.311 44.6233C-8.10367 85.7763 -8.10367 144.021 24.311 185.174Z" fill="#101010"/>
<path d="M114.417 0.898438C143.72 0.898439 172.978 12.0257 195.322 34.2883C214.141 53.0381 225.032 76.674 228 101.108H189.256C145.008 101.108 102.573 83.5947 71.2846 52.4207L43.8842 25.1202C64.5329 8.9707 89.4585 0.898437 114.417 0.898438Z" fill="#101010"/>
<path d="M71.2846 177.376C102.573 146.202 145.008 128.689 189.256 128.689H228C225.032 153.123 214.141 176.759 195.322 195.509C153.952 236.728 88.7835 239.784 43.8848 204.676L71.2846 177.376Z" fill="#101010"/>
<path d="M24.311 185.174C63.2649 146.362 63.2649 83.4352 24.311 44.6233C-8.10367 85.7763 -8.10367 144.021 24.311 185.174Z" fill="#101010"/>
<path d="M24.311 185.174C63.2649 146.362 63.2649 83.4352 24.311 44.6233C-8.10367 85.7763 -8.10367 144.021 24.311 185.174Z" fill="#101010"/>
</g>
</svg>
