<svg width="1024" height="1024" viewBox="0 0 1024 1024" fill="none" xmlns="http://www.w3.org/2000/svg">
<path d="M109.186 827.622C284.137 653.309 284.137 370.691 109.186 196.378C-36.3955 381.206 -36.3954 642.794 109.186 827.622Z" fill="#4D94FF"/>
<path d="M513.873 0C645.481 5.56882e-06 776.884 49.975 877.236 149.961C961.754 234.171 1010.67 340.326 1024 450.065H849.994C651.266 450.065 460.677 371.408 320.155 231.398L197.094 108.785C289.832 36.2544 401.778 0 513.873 0Z" fill="#4D94FF"/>
<path d="M320.155 792.602C460.677 652.592 651.266 573.935 849.994 573.935H1024C1010.67 683.674 961.754 789.829 877.236 874.039C691.434 1059.16 398.747 1072.89 197.097 915.212L320.155 792.602Z" fill="#4D94FF"/>
<path d="M109.186 827.622C284.137 653.309 284.137 370.691 109.186 196.378C-36.3955 381.206 -36.3954 642.794 109.186 827.622Z" fill="#4D94FF"/>
<path d="M109.186 827.622C284.137 653.309 284.137 370.691 109.186 196.378C-36.3955 381.206 -36.3954 642.794 109.186 827.622Z" fill="#4D94FF"/>
</svg>
