<svg width="40" height="40" viewBox="0 0 40 40" fill="none" xmlns="http://www.w3.org/2000/svg">
<path fill-rule="evenodd" clip-rule="evenodd" d="M20 38C29.9411 38 38 29.9411 38 20C38 10.0589 29.9411 2 20 2C10.0589 2 2 10.0589 2 20C2 29.9411 10.0589 38 20 38ZM20 40C31.0457 40 40 31.0457 40 20C40 8.9543 31.0457 0 20 0C8.9543 0 0 8.9543 0 20C0 31.0457 8.9543 40 20 40Z" fill="#101010"/>
<path d="M21.7318 14.9998C21.1796 15.9563 19.9566 16.284 19.0002 15.7318C18.0437 15.1796 17.716 13.9566 18.2682 13.0002C18.8204 12.0437 20.0434 11.716 20.9998 12.2682C21.9563 12.8204 22.284 14.0434 21.7318 14.9998Z" fill="#101010"/>
<path d="M26.7318 24.9998C26.1796 25.9563 24.9566 26.284 24.0002 25.7318C23.0437 25.1796 22.716 23.9566 23.2682 23.0002C23.8204 22.0437 25.0434 21.716 25.9998 22.2682C26.9563 22.8204 27.284 24.0434 26.7318 24.9998Z" fill="#101010"/>
<path d="M16.7318 24.9998C16.1796 25.9563 14.9566 26.284 14.0002 25.7318C13.0437 25.1796 12.716 23.9566 13.2682 23.0002C13.8204 22.0437 15.0434 21.716 15.9998 22.2682C16.9563 22.8204 17.284 24.0434 16.7318 24.9998Z" fill="#101010"/>
</svg>
