<svg width="40" height="40" viewBox="0 0 40 40" fill="none" xmlns="http://www.w3.org/2000/svg">
<path fill-rule="evenodd" clip-rule="evenodd" d="M20 9.00001C20.5523 9.00001 21 9.44772 21 10V30C21 30.5523 20.5523 31 20 31C19.4477 31 19 30.5523 19 30V10C19 9.44772 19.4477 9.00001 20 9.00001ZM14 13C14.5523 13 15 13.4477 15 14L15 26C15 26.5523 14.5523 27 14 27C13.4477 27 13 26.5523 13 26L13 14C13 13.4477 13.4477 13 14 13ZM26 13C26.5523 13 27 13.4477 27 14V26C27 26.5523 26.5523 27 26 27C25.4477 27 25 26.5523 25 26V14C25 13.4477 25.4477 13 26 13Z" fill="#101010"/>
<path d="M37.8542 13.5016C38.3732 13.3127 38.9496 13.5798 39.1123 14.1075C40.3327 18.0656 40.2963 22.3141 38.994 26.2633C37.5872 30.5297 34.7849 34.1982 31.0388 36.6777C27.2926 39.1572 22.8208 40.3033 18.3439 39.9313C13.8669 39.5593 9.64557 37.6909 6.36006 34.6271C3.07454 31.5633 0.916192 27.4826 0.232799 23.0425C-0.450593 18.6024 0.380769 14.0615 2.59293 10.1515C4.80508 6.24155 8.2692 3.19022 12.4271 1.48919C16.2758 -0.0853554 20.5114 -0.418056 24.545 0.523248C25.0828 0.648762 25.3894 1.20515 25.2372 1.73604C25.0849 2.26693 24.5315 2.57099 23.993 2.44847C20.3921 1.6292 16.6172 1.93585 13.1844 3.34027C9.44228 4.8712 6.32458 7.6174 4.33364 11.1364C2.3427 14.6553 1.59447 18.7421 2.20952 22.7382C2.82458 26.7343 4.76709 30.4069 7.72405 33.1644C10.681 35.9218 14.4802 37.6034 18.5095 37.9382C22.5387 38.273 26.5634 37.2415 29.9349 35.01C33.3064 32.7784 35.8284 29.4767 37.0946 25.637C38.2561 22.1145 38.2987 18.3274 37.2303 14.7924C37.0705 14.2638 37.3352 13.6905 37.8542 13.5016Z" fill="#101010"/>
<path d="M27.7841 10L30.3864 4.85228V4.80682H27.3864V4.18182H31.1137V4.84091L28.5228 10H27.7841Z" fill="#101010"/>
<path d="M32.2749 10V4.18182H32.9794V7.06819H33.0476L35.6613 4.18182H36.5817L34.1385 6.80682L36.5817 10H35.7294L33.7067 7.29546L32.9794 8.11364V10H32.2749Z" fill="#101010"/>
</svg>
