<svg width="40" height="40" viewBox="0 0 40 40" fill="none" xmlns="http://www.w3.org/2000/svg">
<path fill-rule="evenodd" clip-rule="evenodd" d="M20 38C29.9411 38 38 29.9411 38 20C38 10.0589 29.9411 2 20 2C10.0589 2 2 10.0589 2 20C2 29.9411 10.0589 38 20 38ZM20 40C31.0457 40 40 31.0457 40 20C40 8.9543 31.0457 0 20 0C8.9543 0 0 8.9543 0 20C0 31.0457 8.9543 40 20 40Z" fill="#101010"/>
<path fill-rule="evenodd" clip-rule="evenodd" d="M14.8868 8.00266C15.142 8.49241 14.9519 9.09637 14.4622 9.35163C10.6199 11.3542 8 15.3722 8 20.0004C8 24.6287 10.6199 28.6466 14.4622 30.6492C14.9519 30.9045 15.142 31.5084 14.8868 31.9982C14.6315 32.4879 14.0276 32.678 13.5378 32.4228C9.06056 30.0893 6 25.4031 6 20.0004C6 14.5978 9.06056 9.91158 13.5378 7.57806C14.0276 7.3228 14.6315 7.5129 14.8868 8.00266ZM25.1132 8.00266C25.3685 7.5129 25.9724 7.3228 26.4622 7.57806C30.9394 9.91158 34 14.5978 34 20.0004C34 25.4031 30.9394 30.0893 26.4622 32.4228C25.9724 32.678 25.3685 32.4879 25.1132 31.9982C24.858 31.5084 25.0481 30.9045 25.5378 30.6492C29.3801 28.6466 32 24.6287 32 20.0004C32 15.3722 29.3801 11.3542 25.5378 9.35163C25.0481 9.09637 24.858 8.49241 25.1132 8.00266Z" fill="#101010"/>
</svg>
