<svg width="180" height="180" viewBox="0 0 180 180" fill="none" xmlns="http://www.w3.org/2000/svg">
<path d="M42.733 126.986C63.2442 106.559 63.2442 73.4396 42.733 53.0123C25.665 74.6718 25.665 105.327 42.733 126.986Z" fill="#AC8A56"/>
<path d="M90.1783 29.9992C105.608 29.9992 121.014 35.8556 132.779 47.5728C142.688 57.4411 148.422 69.8811 149.985 82.7411H129.585C106.286 82.7411 83.9416 73.5236 67.4669 57.1162L53.0392 42.7475C63.9118 34.2477 77.0364 29.9992 90.1783 29.9992Z" fill="#AC8A56"/>
<path d="M67.4669 122.882C83.9416 106.475 106.286 97.2572 129.585 97.2572H149.985C148.422 110.117 142.688 122.557 132.779 132.426C110.995 154.12 76.681 155.728 53.0396 137.251L67.4669 122.882Z" fill="#AC8A56"/>
<path d="M42.733 126.986C63.2442 106.559 63.2442 73.4396 42.733 53.0123C25.665 74.6718 25.665 105.327 42.733 126.986Z" fill="#AC8A56"/>
<path d="M42.733 126.986C63.2442 106.559 63.2442 73.4396 42.733 53.0123C25.665 74.6718 25.665 105.327 42.733 126.986Z" fill="#AC8A56"/>
<path fill-rule="evenodd" clip-rule="evenodd" d="M116.337 14.6072C80.3279 1.88648 39.1818 16.0753 19.3924 50.0492C14.5999 58.2768 11.4527 66.985 9.84183 75.8059L0 74.0103C1.81641 64.0636 5.36382 54.2587 10.7466 45.0176C33.0135 6.79036 79.2423 -9.10318 119.671 5.17868L116.337 14.6072ZM159.161 129.949C178.941 95.9912 170.767 53.6322 141.679 29.1088L148.129 21.4648C180.854 49.0537 190.083 96.7375 167.807 134.981C162.424 144.222 155.633 152.165 147.857 158.693L141.423 151.035C148.331 145.236 154.369 138.177 159.161 129.949ZM9.93246 104.685C13.8319 125.407 25.9233 144.478 44.8363 156.803C46.1516 157.66 47.5003 158.485 48.8821 159.276C50.2638 160.066 51.6588 160.812 53.0656 161.512C73.2964 171.588 96.0293 172.438 116.116 165.413L119.419 174.852C96.8885 182.732 71.348 181.79 48.604 170.463C47.0252 169.676 45.4604 168.84 43.9114 167.954C42.3624 167.067 40.8493 166.142 39.3726 165.18C18.0984 151.317 4.48747 129.847 0.100436 106.534L9.93246 104.685Z" fill="#AC8A56"/>
</svg>
