<svg width="234" height="234" viewBox="0 0 234 234" fill="none" xmlns="http://www.w3.org/2000/svg">
<path d="M69.7953 153.987C90.2973 133.56 90.2973 100.44 69.7953 80.0131C52.7349 101.673 52.7349 132.327 69.7953 153.987Z" fill="#4D94FF"/>
<path d="M117.22 57C132.642 57 148.041 62.8564 159.801 74.5736C169.706 84.4419 175.438 96.8819 177 109.742H156.609C133.32 109.742 110.986 100.524 94.5182 84.117L80.0969 69.7483C90.9647 61.2486 104.083 57 117.22 57Z" fill="#4D94FF"/>
<path d="M94.5182 149.883C110.986 133.476 133.32 124.258 156.609 124.258H177C175.438 137.118 169.706 149.558 159.801 159.426C138.027 181.121 103.728 182.729 80.0973 164.251L94.5182 149.883Z" fill="#4D94FF"/>
<path d="M69.7953 153.987C90.2973 133.56 90.2973 100.44 69.7953 80.0131C52.7349 101.673 52.7349 132.327 69.7953 153.987Z" fill="#4D94FF"/>
<path d="M69.7953 153.987C90.2973 133.56 90.2973 100.44 69.7953 80.0131C52.7349 101.673 52.7349 132.327 69.7953 153.987Z" fill="#4D94FF"/>
<path fill-rule="evenodd" clip-rule="evenodd" d="M117 10C57.9055 10 10 57.9055 10 117C10 176.094 57.9055 224 117 224C176.094 224 224 176.094 224 117C224 57.9055 176.094 10 117 10ZM0 117C0 52.3827 52.3827 0 117 0C181.617 0 234 52.3827 234 117C234 181.617 181.617 234 117 234C52.3827 234 0 181.617 0 117Z" fill="#4C94FF"/>
<path fill-rule="evenodd" clip-rule="evenodd" d="M143.368 41.6072C107.374 28.8865 66.2464 43.0753 46.4658 77.0492C41.6755 85.2768 38.5296 93.985 36.9195 102.806L27.082 101.01C28.8976 91.0636 32.4435 81.2587 37.8239 72.0176C60.0809 33.7904 106.289 17.8968 146.7 32.1787L143.368 41.6072ZM186.172 156.949C205.944 122.991 197.773 80.6322 168.698 56.1088L175.146 48.4648C207.855 76.0537 217.081 123.738 194.814 161.981C189.434 171.222 182.646 179.165 174.873 185.693L168.443 178.035C175.348 172.236 181.382 165.177 186.172 156.949ZM37.0101 131.685C40.9078 152.407 52.9938 171.478 71.8984 183.803C73.2131 184.66 74.5612 185.485 75.9424 186.276C77.3235 187.066 78.7179 187.812 80.124 188.512C100.346 198.588 123.069 199.438 143.146 192.413L146.448 201.852C123.927 209.732 98.3983 208.79 75.6645 197.463C74.0864 196.676 72.5222 195.84 70.9739 194.954C69.4256 194.067 67.9131 193.142 66.4371 192.18C45.1724 178.317 31.5675 156.847 27.1824 133.534L37.0101 131.685Z" fill="#4C94FF"/>
</svg>
