<svg width="180" height="180" viewBox="0 0 180 180" fill="none" xmlns="http://www.w3.org/2000/svg">
<path d="M42.7953 126.987C63.2973 106.56 63.2973 73.4404 42.7953 53.0131C25.7349 74.6726 25.7349 105.327 42.7953 126.987Z" fill="#7E18E3"/>
<path d="M90.2195 30C105.642 30 121.041 35.8564 132.801 47.5736C142.706 57.4419 148.438 69.8819 150 82.7419H129.609C106.32 82.7419 83.9856 73.5244 67.5182 57.117L53.0969 42.7483C63.9647 34.2486 77.0834 30 90.2195 30Z" fill="#7E18E3"/>
<path d="M67.5182 122.883C83.9856 106.476 106.32 97.2581 129.609 97.2581H150C148.438 110.118 142.706 122.558 132.801 132.426C111.027 154.121 76.7282 155.729 53.0973 137.251L67.5182 122.883Z" fill="#7E18E3"/>
<path d="M42.7953 126.987C63.2973 106.56 63.2973 73.4404 42.7953 53.0131C25.7349 74.6726 25.7349 105.327 42.7953 126.987Z" fill="#7E18E3"/>
<path d="M42.7953 126.987C63.2973 106.56 63.2973 73.4404 42.7953 53.0131C25.7349 74.6726 25.7349 105.327 42.7953 126.987Z" fill="#7E18E3"/>
<path fill-rule="evenodd" clip-rule="evenodd" d="M90 10C45.8172 10 10 45.8172 10 90C10 134.183 45.8172 170 90 170C134.183 170 170 134.183 170 90C170 45.8172 134.183 10 90 10ZM0 90C0 40.2944 40.2944 0 90 0C139.706 0 180 40.2944 180 90C180 139.706 139.706 180 90 180C40.2944 180 0 139.706 0 90Z" fill="#7E18E3"/>
</svg>
