<svg width="120" height="120" viewBox="0 0 120 120" fill="none" xmlns="http://www.w3.org/2000/svg">
<path d="M12.7953 96.9869C33.2973 76.5596 33.2973 43.4404 12.7953 23.0131C-4.26509 44.6726 -4.26509 75.3274 12.7953 96.9869Z" fill="#4D94FF"/>
<path d="M60.2195 0C75.6423 6.52596e-07 91.0411 5.85645 102.801 17.5736C112.706 27.4419 118.438 39.8819 120 52.7419H99.6087C76.3202 52.7419 53.9856 43.5244 37.5182 27.117L23.0969 12.7483C33.9647 4.24856 47.0834 0 60.2195 0Z" fill="#4D94FF"/>
<path d="M37.5182 92.883C53.9856 76.4756 76.3202 67.2581 99.6087 67.2581H120C118.438 80.1181 112.706 92.5581 102.801 102.426C81.0274 124.121 46.7282 125.729 23.0973 107.251L37.5182 92.883Z" fill="#4D94FF"/>
<path d="M12.7953 96.9869C33.2973 76.5596 33.2973 43.4404 12.7953 23.0131C-4.26509 44.6726 -4.26509 75.3274 12.7953 96.9869Z" fill="#4D94FF"/>
<path d="M12.7953 96.9869C33.2973 76.5596 33.2973 43.4404 12.7953 23.0131C-4.26509 44.6726 -4.26509 75.3274 12.7953 96.9869Z" fill="#4D94FF"/>
</svg>
