<svg width="180" height="180" viewBox="0 0 180 180" fill="none" xmlns="http://www.w3.org/2000/svg">
<path d="M42.7322 126.987C63.2434 106.56 63.2434 73.4404 42.7322 53.0131C25.6643 74.6726 25.6643 105.327 42.7322 126.987Z" fill="#78E375"/>
<path d="M90.1776 30C105.607 30 121.013 35.8564 132.778 47.5736C142.687 57.4419 148.422 69.8819 149.985 82.7419H129.584C106.285 82.7419 83.9409 73.5244 67.4661 57.117L53.0385 42.7483C63.9111 34.2486 77.0356 30 90.1776 30Z" fill="#78E375"/>
<path d="M67.4661 122.883C83.9409 106.476 106.285 97.2581 129.584 97.2581H149.985C148.422 110.118 142.687 122.558 132.778 132.426C110.995 154.121 76.6802 155.729 53.0388 137.251L67.4661 122.883Z" fill="#78E375"/>
<path d="M42.7322 126.987C63.2434 106.56 63.2434 73.4404 42.7322 53.0131C25.6643 74.6726 25.6643 105.327 42.7322 126.987Z" fill="#78E375"/>
<path d="M42.7322 126.987C63.2434 106.56 63.2434 73.4404 42.7322 53.0131C25.6643 74.6726 25.6643 105.327 42.7322 126.987Z" fill="#78E375"/>
<path fill-rule="evenodd" clip-rule="evenodd" d="M116.337 14.6072C80.3279 1.88648 39.1818 16.0753 19.3924 50.0492C14.5999 58.2768 11.4527 66.985 9.84183 75.8059L0 74.0103C1.81641 64.0636 5.36382 54.2587 10.7466 45.0176C33.0135 6.79036 79.2423 -9.10318 119.671 5.17868L116.337 14.6072ZM159.161 129.949C178.941 95.9912 170.767 53.6322 141.679 29.1088L148.129 21.4648C180.854 49.0537 190.083 96.7375 167.807 134.981C162.424 144.222 155.633 152.165 147.857 158.693L141.423 151.035C148.331 145.236 154.369 138.177 159.161 129.949ZM9.93246 104.685C13.8319 125.407 25.9233 144.478 44.8363 156.803C46.1516 157.66 47.5003 158.485 48.8821 159.276C50.2638 160.066 51.6588 160.812 53.0656 161.512C73.2964 171.588 96.0293 172.438 116.116 165.413L119.419 174.852C96.8885 182.732 71.348 181.79 48.604 170.463C47.0252 169.676 45.4604 168.84 43.9114 167.954C42.3624 167.067 40.8493 166.142 39.3726 165.18C18.0984 151.317 4.48747 129.847 0.100436 106.534L9.93246 104.685Z" fill="#78E375"/>
</svg>
