<svg width="180" height="181" viewBox="0 0 180 181" fill="none" xmlns="http://www.w3.org/2000/svg">
<path d="M42.7953 127.1C63.2973 106.654 63.2973 73.5058 42.7953 53.0603C25.7349 74.739 25.7349 105.421 42.7953 127.1Z" fill="#C4C4C4"/>
<path d="M90.2195 30.0268C105.642 30.0268 121.041 35.8885 132.801 47.616C142.706 57.4931 148.438 69.9441 150 82.8156H129.609C106.32 82.8156 83.9856 73.5898 67.5182 57.1679L53.0969 42.7864C63.9647 34.2791 77.0834 30.0268 90.2195 30.0268Z" fill="#C4C4C4"/>
<path d="M67.5182 122.992C83.9856 106.57 106.32 97.3446 129.609 97.3446H150C148.438 110.216 142.706 122.667 132.801 132.544C111.027 154.258 76.7282 155.868 53.0973 137.373L67.5182 122.992Z" fill="#C4C4C4"/>
<path d="M42.7953 127.1C63.2973 106.654 63.2973 73.5058 42.7953 53.0603C25.7349 74.739 25.7349 105.421 42.7953 127.1Z" fill="#C4C4C4"/>
<path d="M42.7953 127.1C63.2973 106.654 63.2973 73.5058 42.7953 53.0603C25.7349 74.739 25.7349 105.421 42.7953 127.1Z" fill="#C4C4C4"/>
<path fill-rule="evenodd" clip-rule="evenodd" d="M75.8899 9.92917C38.4918 16.6989 10 49.9645 10 90.0801C10 130.196 38.4918 163.461 75.8899 170.231L74.1101 180.08C31.9279 172.444 0 135.011 0 90.0801C0 45.1494 31.9279 7.71585 74.1101 0.0800781L75.8899 9.92917ZM170 90.0801C170 49.9645 141.508 16.6989 104.11 9.92918L105.89 0.0800824C148.072 7.71586 180 45.1495 180 90.0801C180 135.011 148.072 172.444 105.89 180.08L104.11 170.231C141.508 163.461 170 130.196 170 90.0801Z" fill="#C4C4C4"/>
</svg>
