<svg width="220" height="101" viewBox="0 0 220 101" fill="none" xmlns="http://www.w3.org/2000/svg">
<path d="M10.7193 81.6307C27.8949 64.4377 27.8949 36.5623 10.7193 19.3693C-3.57309 37.5994 -3.57308 63.4006 10.7193 81.6307Z" fill="#4D94FF"/>
<path d="M50.449 0C63.3695 5.49269e-07 76.2698 4.92918 86.1218 14.7911C94.4193 23.0969 99.2213 33.5673 100.53 44.3911H83.4473C63.9374 44.3911 45.2265 36.633 31.4309 22.8235L19.3495 10.7298C28.454 3.57587 39.4442 0 50.449 0Z" fill="#4D94FF"/>
<path d="M31.4309 78.1766C45.2265 64.367 63.9374 56.6089 83.4473 56.6089H100.53C99.2213 67.4327 94.4193 77.9031 86.1218 86.2089C67.8808 104.468 39.1466 105.822 19.3498 90.2699L31.4309 78.1766Z" fill="#4D94FF"/>
<path d="M10.7193 81.6307C27.8949 64.4377 27.8949 36.5623 10.7193 19.3693C-3.57309 37.5994 -3.57308 63.4006 10.7193 81.6307Z" fill="#4D94FF"/>
<path d="M10.7193 81.6307C27.8949 64.4377 27.8949 36.5623 10.7193 19.3693C-3.57309 37.5994 -3.57308 63.4006 10.7193 81.6307Z" fill="#4D94FF"/>
<path d="M119.22 9.7117C119.22 7.62894 119.22 6.58756 119.866 5.94053C120.512 5.2935 121.553 5.2935 123.633 5.2935H136.139C138.22 5.2935 139.26 5.2935 139.906 5.94053C140.553 6.58756 140.553 7.62894 140.553 9.7117V26.6481C140.553 28.7309 140.553 29.7723 141.199 30.4193C141.846 31.0663 142.886 31.0663 144.966 31.0663H157.472C159.553 31.0663 160.593 31.0663 161.239 31.7134C161.886 32.3604 161.886 33.4018 161.886 35.4845V43.5845C161.886 45.6673 161.886 46.7087 161.239 47.3557C160.593 48.0028 159.553 48.0027 157.472 48.0027H144.966C142.886 48.0027 141.846 48.0028 141.199 48.6498C140.553 49.2968 140.553 50.3382 140.553 52.421V91.4484C140.553 93.5311 140.553 94.5725 139.906 95.2195C139.26 95.8666 138.22 95.8666 136.139 95.8666H123.633C121.553 95.8666 120.512 95.8666 119.866 95.2195C119.22 94.5725 119.22 93.5311 119.22 91.4484V9.7117Z" fill="white"/>
<path d="M177.334 35.4844C177.334 33.4017 177.334 32.3603 177.98 31.7133C178.627 31.0662 179.667 31.0662 181.748 31.0662H215.586C217.667 31.0662 218.707 31.0662 219.354 31.7133C220 32.3603 220 33.4017 220 35.4844V43.5845C220 45.6672 220 46.7086 219.354 47.3556C218.707 48.0027 217.667 48.0027 215.586 48.0027H203.081C201 48.0027 199.96 48.0027 199.313 48.6497C198.667 49.2967 198.667 50.3381 198.667 52.4209V91.4483C198.667 93.531 198.667 94.5724 198.021 95.2195C197.374 95.8665 196.334 95.8665 194.253 95.8665H181.748C179.667 95.8665 178.627 95.8665 177.98 95.2195C177.334 94.5724 177.334 93.531 177.334 91.4483V35.4844Z" fill="white"/>
</svg>
