<svg width="1040" height="477" viewBox="0 0 1040 477" fill="none" xmlns="http://www.w3.org/2000/svg">
<path d="M50.6728 385.523C131.867 304.324 131.867 172.676 50.6728 91.477C-16.891 177.573 -16.8909 299.427 50.6728 385.523Z" fill="#4D94FF"/>
<path d="M238.486 0C299.565 2.59407e-06 360.548 23.2794 407.121 69.855C446.346 109.082 469.046 158.531 475.234 209.649H394.478C302.249 209.649 213.798 173.009 148.583 107.79L91.4703 50.6745C134.51 16.888 186.463 0 238.486 0Z" fill="#4D94FF"/>
<path d="M148.582 369.21C213.798 303.991 302.249 267.351 394.478 267.351H475.233C469.046 318.469 446.346 367.918 407.121 407.145C320.891 493.38 185.057 499.773 91.4717 426.324L148.582 369.21Z" fill="#4D94FF"/>
<path d="M50.6728 385.523C131.867 304.324 131.867 172.676 50.6728 91.477C-16.891 177.573 -16.8909 299.427 50.6728 385.523Z" fill="#4D94FF"/>
<path d="M50.6728 385.523C131.867 304.324 131.867 172.676 50.6728 91.477C-16.891 177.573 -16.8909 299.427 50.6728 385.523Z" fill="#4D94FF"/>
<path d="M563.584 45.8662C563.584 36.0298 563.584 31.1116 566.64 28.0558C569.695 25 574.613 25 584.449 25H643.566C653.402 25 658.32 25 661.376 28.0558C664.431 31.1116 664.431 36.0297 664.431 45.8661V125.853C664.431 135.689 664.431 140.608 667.487 143.663C670.542 146.719 675.46 146.719 685.296 146.719H744.413C754.249 146.719 759.167 146.719 762.223 149.775C765.278 152.831 765.278 157.749 765.278 167.585V205.84C765.278 215.676 765.278 220.595 762.223 223.65C759.167 226.706 754.249 226.706 744.413 226.706H685.296C675.46 226.706 670.542 226.706 667.487 229.762C664.431 232.818 664.431 237.736 664.431 247.572V431.89C664.431 441.726 664.431 446.644 661.376 449.7C658.32 452.756 653.402 452.756 643.566 452.756H584.449C574.613 452.756 569.695 452.756 566.64 449.7C563.584 446.644 563.584 441.726 563.584 431.89V45.8662Z" fill="#050505"/>
<path d="M838.306 167.585C838.306 157.748 838.306 152.83 841.361 149.775C844.417 146.719 849.335 146.719 859.171 146.719H939.153H1019.14C1028.97 146.719 1033.89 146.719 1036.94 149.775C1040 152.83 1040 157.748 1040 167.585V205.839C1040 215.676 1040 220.594 1036.94 223.65C1033.89 226.706 1028.97 226.706 1019.14 226.706H960.018C950.182 226.706 945.264 226.706 942.208 229.761C939.153 232.817 939.153 237.735 939.153 247.572V431.889C939.153 441.726 939.153 446.644 936.097 449.7C933.042 452.756 928.124 452.756 918.288 452.756H859.171C849.335 452.756 844.417 452.756 841.361 449.7C838.306 446.644 838.306 441.726 838.306 431.889V167.585Z" fill="#050505"/>
</svg>
